<?xml version="1.0" encoding="UTF-8"?>
<svg id="Layer_2" data-name="Layer 2" xmlns="http://www.w3.org/2000/svg" viewBox="0 0 244.92 297.36">
  <defs>
    <style>
      .cls-1 {
        fill: #f3f5dd;
      }

      .cls-1, .cls-2 {
        stroke-width: 0px;
      }

      .cls-2 {
        fill: #c7352a;
      }
    </style>
  </defs>
  <g id="fyldt_dame" data-name="fyldt dame">
    <g>
      <g>
        <path class="cls-1" d="M159.75,241.34c7.69,17.3,13.1,35.48,16.08,54l20.31,1.27c-.57-20.25-1.79-40.49-3.67-60.68"/>
        <path class="cls-2" d="M159.1,241.72c7.6,17.17,13,35.29,16,53.82.05.34.42.53.72.55,6.77.42,13.54.85,20.31,1.27.4.02.76-.36.75-.75-.58-20.26-1.8-40.5-3.67-60.68-.09-.95-1.59-.96-1.5,0,1.87,20.18,3.09,40.42,3.67,60.68l.75-.75c-6.77-.42-13.54-.85-20.31-1.27l.72.55c-3.03-18.68-8.49-36.89-16.15-54.18-.39-.88-1.68-.12-1.3.76h0Z"/>
      </g>
      <g>
        <path class="cls-1" d="M104.47,240.65c1.06,8.86,2.08,17.79,3.08,26.78,1.04,9.39,2.04,18.73,3,28,10.1.16,20.2.33,30.3.49,1.34-7.92,2.58-16.09,3.7-24.49,1.75-13.15,3.05-25.83,4-38"/>
        <path class="cls-2" d="M103.72,240.65c2.17,18.24,4.2,36.5,6.08,54.78.04.41.31.74.75.75,10.1.16,20.2.33,30.3.49.3,0,.67-.23.72-.55,2.74-16.26,4.93-32.61,6.53-49.03.44-4.55.84-9.11,1.2-13.67.08-.96-1.43-.96-1.5,0-1.28,16.33-3.11,32.61-5.53,48.81-.67,4.5-1.39,8.99-2.14,13.48l.72-.55c-10.1-.16-20.2-.33-30.3-.49l.75.75c-1.88-18.28-3.91-36.54-6.08-54.78-.11-.95-1.61-.96-1.5,0h0Z"/>
      </g>
      <path class="cls-1" d="M171.43,67.21c-.97-2.21-1.93-4.47-2.88-6.78-1.82-4.43-3.48-8.77-5-13-1.03-.89-2.47-2.22-4-4-.91-1.06-2.38-2.76-3-4-2.35-4.7,1.15-15.5,9-17,5.77-1.1,10.48,3.47,11,4,.5,4.25.81,7.68,1,10,.35,4.38.32,5.31,1,7,1.25,3.07,2.82,3.57,5,7,.97,1.54,2.17,3.83,3,7-5.04,3.26-10.08,6.52-15.12,9.78Z"/>
      <g>
        <g>
          <path class="cls-1" d="M160.82,93.49s.01.04,0,.05c-.15,2.25-.64,4.22-1.22,5.84-.31.87-.89,2.49-1.73,3.71-4.14,5.99-16.92,5.63-20.72,6.36-.03,0-1.45.28-1.45.28h0c-1.45.28-3.64.72-6.28,1.31,0,0-1.53.34-2.97.68-6,1.44-16.81,5.49-22.4,7.34-11.5,3.79-17.25,5.68-23.01,3.86-2.85-.91-6.81-2.88-11.39-5.16-5.94-2.96-9.02-4.17-9.56-4.46-6.44-3.48-16.55-10.38-22.58-14.5-1.24-.85-3.51-2.4-5.58-1.57-1.25.5-1.6,1.54-3.28,1.89-1.1.23-2.72.17-3.25-.82-.27-.5-.17-1.07-.1-1.46.82-4.75-.22-1.75,1.68-9.3.19-.78.38-1.48.96-2.03.9-.86,2.15-.77,2.54-.74,1.34.1,2.29.81,2.55.99,2.22,1.61,4.88,2.35,7.23,3.74,5.19,3.08,5.51,2.54,10.49,5.43,4.2,2.44,6.29,4.17,8.28,5.51,8.95,6.05,22.15,8.55,33.24,4.99,3.99-1.28,2.57-1.52,10.48-5.51,8.47-4.26,17.79-6.08,26.66-9.23,8.76-3.11,17.19-7.55,26.28-9.21.25.13.52.28.8.46.25.15.51.33.78.55.55.43,1.1.96,1.6,1.6.07.09.14.18.2.27.15.23.39.58.61.99.06.1.11.21.16.31.03.07.07.14.09.21.49,1.23.94,4.21.89,7.62Z"/>
          <path class="cls-2" d="M160.07,93.49c0,2.88-1.1,6.43-2.62,8.88-1.13,1.8-3.01,2.95-4.95,3.72-3.99,1.58-8.36,1.9-12.59,2.28-3.73.34-7.4,1.21-11.05,2.03-5.12,1.15-10.07,2.77-15.02,4.48-5.19,1.79-10.37,3.63-15.61,5.29-4.4,1.4-9.14,3.02-13.83,2.65-2.12-.17-4.12-.9-6.06-1.73-3.04-1.31-5.99-2.83-8.96-4.3-3.48-1.72-7.16-3.12-10.54-5.05-4.93-2.82-9.66-5.97-14.37-9.13-2.2-1.48-4.38-2.97-6.57-4.46-1.9-1.29-4.35-2.64-6.63-1.43-1.15.61-1.8,1.59-3.19,1.74-.49.05-1.27.09-1.71-.23-.7-.52-.23-1.76-.13-2.47.13-.9.16-1.81.28-2.71.09-.68.25-1.35.4-2.01.32-1.4.51-3.01,1.11-4.31,1.43-3.05,5.11.11,6.85.98,1.4.71,2.88,1.27,4.27,2.01,1.28.68,2.52,1.46,3.81,2.13,1.86.95,3.8,1.73,5.64,2.72,2.51,1.35,4.93,2.88,7.26,4.52,1.96,1.39,3.88,2.78,6.01,3.91,9.49,5.02,21.93,6.66,32.08,2.63,1.03-.41,1.95-.96,2.88-1.55,1.77-1.12,3.61-2.13,5.47-3.09,6.2-3.19,12.87-5.1,19.51-7.08s12.94-4.49,19.33-7.05c3.18-1.28,6.39-2.5,9.68-3.45.8-.23,1.6-.45,2.41-.64.61-.15,1.57-.55,2.22-.48,1.29.13,2.76,2.04,3.37,3.05,1.38,2.3,1.28,5.57,1.26,8.15,0,.97,1.49.97,1.5,0,.02-2.61.05-5.78-1.08-8.21-.56-1.18-1.42-2.25-2.41-3.1-.5-.43-1.04-.82-1.62-1.14-.81-.45-1.41-.21-2.3-.02-7.03,1.5-13.59,4.51-20.23,7.16s-13.55,4.48-20.36,6.67c-5.89,1.89-11.61,4.3-16.89,7.56-.96.6-1.9,1.26-2.94,1.7-2.23.96-4.7,1.5-7.09,1.85-6.32.92-12.89.12-18.9-2-2.94-1.04-5.75-2.42-8.33-4.16-1.9-1.28-3.72-2.68-5.66-3.91-2.4-1.53-4.87-2.91-7.46-4.09-2.34-1.06-4.5-2.39-6.79-3.55-1.53-.77-3.14-1.38-4.64-2.21-1.04-.58-1.95-1.38-3.09-1.76-2.41-.8-4.69.21-5.42,2.69-.57,1.94-1.09,4-1.34,6.02-.14,1.13-.2,2.25-.39,3.37-.17,1.04-.28,2.13.59,2.9.83.74,2.1.81,3.15.67,1.28-.17,2.07-.79,3.06-1.53,1.52-1.13,3.2-.51,4.67.38,2.18,1.32,4.24,2.87,6.35,4.29,2.59,1.74,5.18,3.47,7.8,5.16,3.67,2.36,7.35,4.79,11.34,6.56,5.56,2.46,10.88,5.45,16.49,7.81,2.04.86,4.08,1.55,6.3,1.72,2.02.16,4.06-.09,6.05-.47,5.61-1.1,11.1-3.11,16.49-4.98s10.67-3.81,16.1-5.43c4.66-1.4,9.48-2.38,14.26-3.25,7.48-1.36,18.46-.17,22.21-8.52,1.12-2.5,2.07-5.41,2.07-8.18,0-.97-1.5-.97-1.5,0Z"/>
        </g>
        <g>
          <path class="cls-1" d="M28.83,84.76c1.11-1.44,1.35-3.59.57-5.26-2.89-1.26-5.72-2.7-8.46-4.31-1.58-.93-3.14-1.92-4.85-2.51-2.23-.78-4.61-.86-6.96-.94.07,2.25.14,4.5.22,6.75.04,1.33.08,2.72-.41,3.94-.35.89-.96,1.63-1.37,2.49-.97,2.02-.8,4.51-1.85,6.48-.73,1.37-2.01,2.39-2.48,3.88-.23.71-.25,1.48-.35,2.23-.46,3.66-2.64,7.15-2,10.78.15.84.47,1.68,1.08,2.21.49.42,1.11.62,1.71.8,1.31.4,2.62.8,3.93,1.2,1.47.45,2.95.9,4.46,1.15,1.06.18,2.21.25,3.17-.27,2.03-1.09,2.29-4.01,3.21-6.24.99-2.38,3.05-4.21,5.4-4.82.73-.19,1.5-.27,2.17-.65s1.21-1.17,1.05-1.96"/>
          <path class="cls-2" d="M29.48,85.14c1.13-1.59,1.52-3.84.72-5.67-.43-.99-1.87-1.26-2.79-1.7-1.29-.61-2.56-1.26-3.81-1.94-2.28-1.24-4.45-2.78-6.88-3.72s-5.02-1.04-7.58-1.12c-.4-.01-.76.35-.75.75.05,1.53.1,3.05.15,4.58s.24,3.2,0,4.74-1.19,2.52-1.76,3.85c-.47,1.11-.65,2.3-.88,3.47-.26,1.33-.63,2.51-1.44,3.62-.72.99-1.55,1.89-1.93,3.08-.4,1.25-.35,2.62-.66,3.9-.34,1.4-.83,2.75-1.21,4.13-.6,2.17-1.08,4.83.05,6.92s4.23,2.42,6.29,3.05c2.37.72,5.4,2,7.9,1.25,1.94-.59,2.8-2.46,3.38-4.24.86-2.64,1.72-5.1,4.35-6.49,1.87-.99,5.48-.86,5.2-3.89-.09-.95-1.59-.96-1.5,0,.13,1.49-1.61,1.6-2.66,1.88-.96.26-1.88.69-2.7,1.27-1.54,1.09-2.67,2.63-3.35,4.39-.64,1.67-.85,4-2.32,5.19-1.93,1.56-5.64-.11-7.7-.74-1.17-.36-2.33-.71-3.5-1.07-1.4-.43-2.23-1.04-2.49-2.56-.44-2.53.65-5.07,1.35-7.45.3-1.03.55-2.06.68-3.13.2-1.6.52-2.7,1.51-3.98,1.39-1.81,1.93-3.51,2.36-5.73.25-1.29.63-2.41,1.3-3.55.63-1.06,1.08-2.06,1.23-3.3.35-2.99-.07-6.2-.16-9.21l-.75.75c2.13.07,4.29.14,6.34.77,2.2.68,4.13,2.04,6.12,3.17s3.9,2.11,5.91,3.03c.33.15,1.08.31,1.31.57.26.29.27,1.09.28,1.43.04,1.08-.3,2.04-.92,2.91-.56.79.74,1.54,1.3.76h0Z"/>
        </g>
        <g>
          <path class="cls-1" d="M9,71.86c-1.33-.88-4.24,2.17-4.49,2.43-1.21,1.29-1.69,2.54-2.67,4.75-.42.95-.84,1.99-.62,3,.16.73.64,1.33.97,2,.72,1.48.65,3.33-.04,4.83-.36.79-.88,1.5-1.19,2.32-.19.49-.47,1.84.14,2.52.61.69,1.88.37,2.57.02,1.43-.72,2.05-2.37,2.54-3.75.68-1.9.27-2.04.86-3.74.9-2.58,1.96-2.52,2.55-4.68.12-.44.16-.75.01-4.67-.16-4.3-.24-4.77-.63-5.03Z"/>
          <path class="cls-2" d="M9.38,71.21c-1.48-.8-3.11.49-4.2,1.41-1.27,1.08-2.27,2.33-3,3.84-1.11,2.3-2.46,4.67-1.1,7.12.73,1.31,1.08,2.58.7,4.08-.32,1.29-1.26,2.3-1.63,3.58-.54,1.88.26,3.89,2.48,3.59,2.33-.32,3.46-2.35,4.19-4.36.35-.97.48-1.87.65-2.87.21-1.23.76-2.34,1.5-3.32s1.38-2.03,1.47-3.29c.16-2.23-.07-4.55-.19-6.78-.06-.99.03-2.35-.88-2.99-.79-.56-1.54.74-.76,1.3-.14-.1-.05-.09,0,.2.09.49.11,1,.14,1.5.11,1.94.19,3.9.21,5.85,0,.9.04,1.23-.34,2.06-.27.61-.71,1.09-1.1,1.62-.55.76-.96,1.6-1.24,2.49-.22.68-.28,1.36-.39,2.06-.16,1.04-.55,2.11-1.03,3.04-.44.87-1.04,1.64-2.01,1.94-.55.17-1.13.24-1.35-.41-.13-.37.02-.93.13-1.29.29-.93.95-1.73,1.31-2.64.41-1,.58-2.1.47-3.17-.08-.89-.37-1.71-.8-2.49-.25-.45-.56-.89-.67-1.4-.17-.82.22-1.69.54-2.42.72-1.68,1.41-3.43,2.71-4.76.58-.6,2.48-2.66,3.42-2.15.85.46,1.61-.84.76-1.3Z"/>
        </g>
        <g>
          <path class="cls-1" d="M25.79,71.62c.09.48.19.98.49,1.33s.9.47,1.2.11c.1-.12.15-.27.21-.42,1.05-2.96,2.11-5.93,3.16-8.89.23-.65.47-1.32.52-2.02.03-.47-.02-.96.09-1.42.15-.67.6-1.22.83-1.86.5-1.41-.31-3.18-1.65-3.6.63-.83,1.27-1.67,1.6-2.68s.3-2.21-.33-3.03c-1.06-1.36-3.06-.99-4.62-1.55-.22-.08-.45-.19-.59-.4-.26-.4-.04-.99.32-1.29s.83-.41,1.25-.58c2.27-.91,3.5-4.05,2.53-6.42-.85-2.08-3.03-3.44-3.37-5.68-.09-.57-.04-1.16-.2-1.71-.27-.94-1.07-1.58-1.88-2.05-1.2-.7-2.64-1.18-3.93-.68-.85.33-1.59,1.07-2.48,1.07-.82,0-1.52-.64-2.33-.79-1.28-.24-2.52.84-3.04,2.12-.52,1.28-.51,2.73-.53,4.13,0,.25-.01.52-.12.74-.12.26-.35.44-.6.56-1.2.58-2.64-.08-3.89.36-1.27.45-1.97,1.87-2.51,3.18-.49,1.19-.88,2.77.03,3.62.18.17.4.29.52.51.32.58-.26,1.23-.56,1.83-.69,1.38.24,3.14,1.52,3.88s2.79.78,4.22,1.04c.32.06.66.14.9.38.36.38.34,1.03.16,1.54s-.5.97-.65,1.49c-.47,1.59,1.02,3.41,2.54,3.11.69-.13,1.47-.58,2.01-.12.32.27.41.76.7,1.07.61.64,1.64.13,2.28-.49s1.37-1.39,2.21-1.18c.69.18,1.06.98,1.34,1.68,1.67,4.25,3.38,8.78,2.74,13.36l-.07-.25Z"/>
          <path class="cls-2" d="M25.07,71.82c.16.83.45,1.73,1.3,2.07.63.25,1.34.1,1.76-.46.67-.91.9-2.35,1.28-3.4.53-1.48,1.05-2.96,1.58-4.44.42-1.19.96-2.39,1.1-3.65.1-.86.11-1.55.49-2.37.21-.46.44-.88.54-1.38.32-1.75-.67-3.42-2.29-4.06l.45,1.1c1.1-1.45,2.18-3.11,1.85-5.01-.29-1.67-1.57-2.56-3.15-2.86-.44-.08-2.75-.12-2.3-1,.09-.18.9-.35,1.1-.45.38-.18.73-.41,1.05-.68,1.16-.98,1.85-2.47,2.01-3.97.18-1.72-.48-3.19-1.5-4.54-.53-.7-1.13-1.36-1.58-2.11-.65-1.07-.48-2.15-.81-3.29-.45-1.58-2.09-2.59-3.54-3.13-.88-.33-1.87-.48-2.8-.25-1.07.26-2.01,1.38-3.16,1.05-.85-.24-1.44-.75-2.37-.7-.8.04-1.52.43-2.1.97-1.43,1.34-1.64,3.36-1.7,5.21-.02.82-.11,1.58-1.12,1.65-.46.03-.93-.04-1.39-.05-.9-.02-1.72.13-2.46.66-1.3.93-2.1,2.75-2.49,4.27-.2.79-.3,1.67,0,2.45.11.28.26.51.46.74.27.3.34.24.34.65,0,.35-.25.61-.4.9-.67,1.38-.23,2.96.76,4.06,1.3,1.45,3.24,1.59,5.03,1.89,1.59.27.69,1.32.34,2.37-.25.75-.23,1.52.08,2.26s.9,1.41,1.65,1.76c.93.44,1.46.02,2.37.02,1.05,0,1.24,1.34,2.33,1.45.81.09,1.57-.37,2.16-.88s1.19-1.51,2.07-.66c.36.34.51,1.12.68,1.58.5,1.29.99,2.6,1.4,3.92.85,2.73,1.33,5.52.98,8.38l1.47-.2-.07-.25c-.25-.93-1.7-.54-1.45.4l.07.25c.24.87,1.38.59,1.47-.2.53-4.33-.81-8.5-2.35-12.49-.46-1.19-.92-2.99-2.38-3.29-.66-.13-1.27.1-1.81.47-.66.46-1.61,1.94-2.39,1.15-.51-.51-.52-1.03-1.33-1.19s-1.65.49-2.45.25c-2.41-.74-.16-3.33-.34-4.8-.2-1.68-1.97-1.7-3.29-1.91-1.66-.26-4.43-1.19-3.76-3.46.21-.72.85-1.22.8-2.04-.05-.86-.89-1.09-1.11-1.84-.46-1.53,1.14-4.67,2.66-5.08s3.37.47,4.51-.92c.48-.59.43-1.34.45-2.06.02-1.08.05-2.18.47-3.19.48-1.16,1.46-1.99,2.73-1.52.8.3,1.44.7,2.33.58.73-.1,1.31-.54,1.96-.87,1.26-.63,2.54-.27,3.7.42,1.04.62,1.52,1.27,1.65,2.47.09.84.21,1.58.59,2.34.74,1.47,2.1,2.55,2.79,4.04.82,1.76.24,4.11-1.32,5.28-1.05.78-3.26,1.03-2.82,2.9.38,1.61,2.81,1.43,4.04,1.73,3.14.76,1.33,3.96.08,5.61-.32.43.05.94.45,1.1.71.28,1.14.99,1.22,1.73.1.87-.42,1.49-.73,2.25-.24.57-.25,1.1-.29,1.71-.07.9-.29,1.68-.59,2.53-.58,1.64-1.17,3.28-1.75,4.91-.28.78-.56,1.56-.83,2.34-.03.09-.43,1.39-.5,1.4-.29.05-.42-.89-.45-1.02-.19-.95-1.63-.55-1.45.4Z"/>
        </g>
      </g>
      <g>
        <path class="cls-1" d="M186.73,57.01c1.26.82,2.51,1.64,3.77,2.45h0s.29.22.65.43c.63.39,1.37.75,2.23,1.05,2.02.71,3.83.81,5.44,2.42.7.7,1.12,1.61,1.53,2.49,2.17,4.59,4.66,9.04,7.19,13.46.39.68.78,1.37,1.17,2.05,1.01,1.76,2.01,3.51,3.02,5.26,1.29,2.25,2.6,3.95,3.46,5.13,4.39,5.21,6.68,9.93,7.96,13.33,1.4,3.75,1.71,5.84,4.63,14.86.67,2.1,1.42,4.17,2.17,6.24,1.45,4,2.89,7.99,4.34,11.99.72,1.98,1.44,3.97,2.42,5.85,1.82,3.48,4.61,6.96,3.96,10.81-.11.68-.34,1.36-.79,1.89-.45.54-1.08.9-1.71,1.23-1.09.57-2.05,1.34-3.09,2,0,0-4.47,2.8-6.99,5.45-.45.47-.84.94-.84.94-.65.8-.88,1.25-1.49,2.13-.51.72-1.21,1.69-2.29,3.1-1.05,1.35-1.9,2.42-3.63,4.51-5.95,7.18-8.94,10.76-9.22,11.09-.92,1.06-1.85,2.12-2.62,3.28-.88,1.32-1.55,2.76-2.22,4.2-1.8,3.86-3.6,7.72-5.4,11.58-1.61-.46-3.2-1-4.75-1.62-.43-.17-.91-.4-1.05-.83-.08-.26-.02-.55.05-.82,2.23-8.86,7.78-16.53,11.73-24.81,1.22-2.56.8-1.92,2.03-4.4,6.25-12.58,10.55-13.44,12.61-19.36,2.02-5.79-2.09-5-5.67-26.25-.99-5.89-3.5-11.43-5.29-17.13-.72-2.3-1.67-4.88-3.96-5.81-.32-.13-.68-.21-1.02-.2-.05,0-.09,0-.14,0-.2.02-.39.08-.56.19-.42.27-.61.77-.77,1.23-2.53,6.98-5.26,13.89-8.2,20.71-1.55,3.58-3.16,7.16-5.4,10.37-1.23,1.77-2.68,3.45-4.57,4.54-1.47.86-3.16,1.33-4.57,2.27-1.08.72-1.96,1.69-2.79,2.68-4.43,5.29-7.76,11.45-9.72,17.99-1.11,2.3-2.44,5.47-3.19,8.92-.27,1.21-.52,2.57,0,4.07.37,1.07,1.11,1.97,1.84,2.85,3.08,3.69,6.17,7.4,9.77,10.61,1.7,1.52,3.51,2.92,5.32,4.32,5.7,4.42,11.62,8.95,18.67,10.74,3.43.87,7,1.06,10.48,1.72,3.15.59,6.21,1.57,9.38,1.96,6.83.86,13.97-1,20.54,1.01,1.01.31,2.07.77,2.62,1.65,1.01,1.6-.08,3.62-1.17,5.15-5.21,7.32-8.69,11.02-8.69,11.02-6.24,5.02-14.2,11.43-26.05,13.08-14.47,2.02-15.94-5.68-28.2-2.4-7.93,2.12-12.28,6.67-20.8,5.4-3.41-.5-4.68-1.52-8.22-2.93-11.12-4.4-23.73-4.3-32.78-2.07-11.94,2.94-12.2,8.22-23,9-6.89.5-12.3-1.25-17.04-2.79-15.16-4.91-15.4-11.32-24.96-12.21-8.94-.83-9.87,4.68-24,5-10.41.24-14.43-2.65-16-4-.33-.28-6.38-5.6-5-11,.72-2.82,3.2-4.54,8-7,10.8-5.53,19.41-7.8,19.41-7.8,8.55-2.25,15.38-5.15,29.04-10.95,0,0,13.25-5.55,26.23-13.03,1.32-.76,3.22-1.86,5.65-3.46.61-.4,1.54-1.02,4.92-3.4,2.1-1.47,3.9-2.75,5.29-3.74,3.84-2.65,6.48-5.26,8.19-7.18,3.89-4.36,4.62-6.96,8.71-9.87,3.5-2.5,3.69-1.11,6.87-3.46,0,0,6.15-4.54,9.7-13.39.28-.7.87-2.27,2.13-4.08.58-.83,1.28-1.58,1.88-2.4.9-1.23,1.57-2.61,2.21-3.99.84-1.81,1.63-3.65,2.42-5.49,1.38-3.21,2.76-6.42,4.13-9.62.3-.71.86-1.98,1.13-3.76.25-1.64-.05-2.15.1-3.18.35-2.48,2.5-3.61,3.99-5.2,1.44-1.54,2.98-4.28,2.95-9.55,0,0,0-.03,0-.05.04-.45.05-.92.05-1.4,0-2.04-.02-4.18-.94-6.22-.02-.07-.06-.14-.09-.21-.05-.1-.1-.21-.16-.31-.17-.33-.37-.67-.61-.99-.06-.09-.13-.18-.2-.27-.5-.64-1.05-1.17-1.6-1.6-.26-.21-.52-.39-.78-.55-.28-.18-.55-.33-.8-.46-.3-.16-.57-.29-.82-.39.56-.83.98-1.52,1.26-2.01,0,0,1.06-1.62,2.08-2.99,2.67-3.57,6.46-6.88,6.97-7.32,3.03-2.63,3.71-2.71,4.32-3.25.03-.02.27-.3.58-.68.09-.11.16-.2.21-.26"/>
        <path class="cls-2" d="M186.35,57.66c2.56,1.67,4.98,3.49,7.95,4.35,1.44.42,2.91.77,3.99,1.88,1.26,1.29,1.87,3.32,2.67,4.91,3.25,6.46,6.85,12.84,10.61,19.02,1.66,2.72,3.74,5.08,5.58,7.66s3.27,5.08,4.49,7.84c1.43,3.25,2.31,6.68,3.33,10.07,1.96,6.57,4.28,13,6.61,19.44,1.25,3.45,2.37,7,3.9,10.34,1.34,2.93,3.55,5.57,4.33,8.74.43,1.75.4,3.87-1.26,4.96-1.26.83-2.58,1.6-3.85,2.43-1.61,1.05-3.19,2.15-4.68,3.35-2.14,1.72-3.61,3.64-5.19,5.85s-3.41,4.5-5.21,6.68c-3.11,3.77-6.22,7.55-9.38,11.28-2.04,2.4-3.67,4.73-5.01,7.6-1.83,3.92-3.66,7.85-5.49,11.78l.85-.34c-1.02-.3-2.04-.62-3.04-.98-.43-.15-.86-.31-1.28-.48-.93-.37-.91-.9-.68-1.73.56-2.03,1.29-4,2.14-5.93,1.64-3.74,3.66-7.3,5.63-10.87,3.38-6.11,5.9-12.71,9.78-18.54,1.4-2.1,2.99-4.05,4.61-5.98,1.18-1.41,2.36-2.84,3.19-4.5,1.13-2.24,1.73-4.58,1.01-7.04-.99-3.37-2.45-6.58-3.39-9.98s-1.69-7.02-2.32-10.58c-.75-4.28-2.05-8.34-3.51-12.43-.71-1.99-1.4-3.99-2.05-6-.47-1.45-1.01-2.92-1.95-4.14-.85-1.09-2.19-2.13-3.65-2.09-1.64.04-2.06,1.61-2.52,2.89-3.07,8.4-6.21,16.95-10.23,24.94-1.79,3.55-4,7.58-7.63,9.52-1.7.91-3.54,1.45-5.04,2.69s-2.67,2.81-3.82,4.34c-2.41,3.2-4.45,6.68-6.05,10.35-.77,1.76-1.39,3.57-2.01,5.38-.58,1.71-1.46,3.33-2.07,5.04-1.26,3.52-2.56,7.48-.13,10.78s5.14,6.27,7.92,9.11,6.15,5.48,9.42,8,6.36,4.82,9.85,6.73,7.24,3.22,11.21,3.85c2.13.34,4.28.55,6.41.92s4.35.96,6.53,1.45c4.23.94,8.4.95,12.71.79,2.14-.08,4.29-.15,6.42,0,2,.14,4.47.35,6.24,1.4,2.41,1.43.41,4.17-.73,5.76s-2.43,3.32-3.69,4.94-2.67,3.41-4.13,4.98-3.32,2.77-5,4.01c-2.64,1.96-5.41,3.76-8.35,5.24-6.39,3.22-14.12,5.19-21.28,3.96-4.59-.79-8.77-3.18-13.5-3.23-3.21-.03-6.39.79-9.38,1.91-3.15,1.19-6.13,2.82-9.37,3.77-3.53,1.04-7.39,1.05-10.88-.19-1.66-.59-3.23-1.42-4.87-2.08-1.92-.77-3.89-1.41-5.89-1.93-7.38-1.91-15.18-2.25-22.72-1.16-3.51.51-6.99,1.34-10.26,2.71-2.5,1.05-4.77,2.47-7.09,3.87s-4.66,2.44-7.31,2.95c-3.97.75-8.13.57-12.07-.23-6.71-1.36-13.5-3.8-19.21-7.62-3.57-2.4-6.76-5.39-11.07-6.37-2.31-.53-4.76-.65-7.1-.25-1.97.33-3.79,1.12-5.62,1.89-5.94,2.51-12.19,3.36-18.63,2.83-3.84-.32-8.05-1.21-10.98-3.89-1.77-1.62-3.38-3.67-4.21-5.94-1.09-2.96-.26-5.67,2.18-7.59,3.12-2.46,7.07-4.09,10.67-5.71,3.12-1.4,6.3-2.66,9.54-3.77,3.66-1.25,7.42-2.14,11.08-3.38,6.11-2.06,12.06-4.61,18-7.12,11.39-4.82,22.69-10.02,33.27-16.47,2.08-1.27,4.09-2.63,6.09-4.02,3.18-2.22,6.44-4.39,9.5-6.78,2.82-2.21,5.38-4.72,7.6-7.53,2.06-2.62,3.8-5.45,6.51-7.47,1.23-.91,2.46-1.57,3.91-2.01,1.21-.37,2.28-.94,3.3-1.69s1.98-1.69,2.87-2.62c2.07-2.17,3.86-4.63,5.3-7.26.81-1.46,1.45-2.98,2.09-4.52.76-1.82,1.83-3.37,3.06-4.9,2.62-3.26,4.04-7.43,5.68-11.24.92-2.14,1.84-4.28,2.76-6.42.65-1.51,1.39-3.03,1.84-4.62.23-.8.38-1.64.45-2.47.06-.74-.07-1.49,0-2.22.17-1.8,1.6-2.93,2.85-4.05,1.9-1.71,3.1-3.81,3.66-6.32.35-1.56.42-3.13.46-4.73.05-1.95.11-3.91-.28-5.83-.68-3.29-2.96-5.9-6.04-7.22l.27,1.03c1.24-1.85,2.35-3.76,3.74-5.51,1.52-1.93,3.25-3.71,5.05-5.38,1.24-1.16,2.52-2.3,3.91-3.28,1.01-.71,1.81-1.2,2.61-2.18.6-.74-.45-1.81-1.06-1.06-.81,1-1.67,1.48-2.7,2.23-1.42,1.05-2.75,2.22-4.03,3.42-1.85,1.74-3.61,3.58-5.16,5.6-1.34,1.74-2.44,3.59-3.65,5.41-.21.31-.09.87.27,1.03,1.66.71,3.16,1.8,4.16,3.33,1.2,1.83,1.43,4.01,1.46,6.15.06,3.33.04,7-1.72,9.95-1.4,2.33-4.24,3.53-5.07,6.23-.47,1.53-.08,3.17-.41,4.73-.37,1.75-1.18,3.38-1.88,5.02-1.78,4.14-3.5,8.31-5.38,12.4-.94,2.04-1.96,3.87-3.37,5.62-1.11,1.37-2.02,2.85-2.72,4.47-2.2,5.13-5.01,9.93-9.33,13.57-.49.41-.66.56-1.41,1.02-1.02.63-2.13.85-3.23,1.28-2.89,1.14-5.3,3.48-7.16,5.9-2.09,2.73-4.08,5.48-6.56,7.88-2.82,2.73-6.05,4.94-9.25,7.19-5.14,3.63-10.31,7.04-15.83,10.08-6.37,3.51-12.91,6.72-19.55,9.68-4.73,2.11-9.47,4.08-14.49,6.14-5.33,2.19-10.71,4.25-16.27,5.79-4.03,1.12-7.96,2.45-11.83,4.04s-7.55,3.27-11.14,5.26c-2.35,1.3-4.95,2.87-6.05,5.45-1.95,4.59,1.47,9.72,4.84,12.66,3.04,2.65,7.13,3.65,11.05,4.05,6.39.66,12.96-.02,18.92-2.46,1.85-.76,3.66-1.62,5.62-2.08,2.33-.54,4.84-.45,7.17.08,4.39,1,7.63,4.23,11.3,6.61,5.7,3.7,12.52,6.12,19.17,7.42s13.33,1.04,19.12-2.19c2.25-1.26,4.36-2.74,6.69-3.86,3.22-1.55,6.71-2.49,10.22-3.08,7.73-1.31,15.85-.98,23.43,1.01,2,.53,3.98,1.17,5.9,1.96,1.61.66,3.16,1.48,4.8,2.04,3.28,1.12,6.96,1.23,10.32.45s6.23-2.34,9.31-3.59,6.43-2.31,9.81-2.35c4.79-.06,9.02,2.43,13.66,3.2,6.86,1.14,14.14-.44,20.42-3.24,3.08-1.38,5.98-3.11,8.73-5.05,2.19-1.54,4.55-3.15,6.5-5,1.07-1.01,1.98-2.26,2.91-3.4,2.27-2.79,4.76-5.68,6.57-8.8,5.08-8.79-10.97-7.89-15.49-7.73-2.15.08-4.31.14-6.46-.03-2.31-.18-4.55-.7-6.8-1.24-4.26-1.02-8.6-1.36-12.88-2.24-8.12-1.68-14.75-6.99-21.13-11.98-3.35-2.62-6.42-5.48-9.25-8.66-1.4-1.57-2.75-3.19-4.1-4.8-.67-.8-1.38-1.6-1.8-2.57-.52-1.17-.46-2.37-.21-3.6.76-3.84,2.55-7.25,3.79-10.91,1.3-3.86,3.1-7.55,5.3-10.98,1.13-1.76,2.36-3.45,3.71-5.05s2.9-2.84,4.9-3.73c1.74-.77,3.33-1.61,4.71-2.95s2.44-2.88,3.43-4.47c2.25-3.63,3.89-7.61,5.55-11.54s3.37-8.18,4.94-12.32c.37-.98.74-1.96,1.11-2.95.2-.53.39-1.06.59-1.59s.36-1.42.71-1.87c.69-.89,2,.09,2.57.65.65.64,1.1,1.47,1.46,2.3.79,1.81,1.28,3.77,1.94,5.63.71,2.03,1.46,4.05,2.14,6.09,2.33,7.01,2.96,14.43,5.16,21.49.55,1.78,1.19,3.53,1.86,5.26.4,1.05.86,2.12,1.05,3.23.45,2.62-1.12,5.4-2.63,7.41-1.27,1.69-2.71,3.24-4,4.91-1.99,2.57-3.72,5.31-5.25,8.17s-2.66,5.67-4.08,8.46c-1.86,3.65-3.94,7.18-5.85,10.81-1.75,3.32-3.35,6.75-4.46,10.34-.4,1.3-1.23,3.1.18,4.06,1.54,1.05,3.8,1.5,5.56,2.01.29.09.71-.05.85-.34,1.66-3.56,3.32-7.13,4.98-10.69.75-1.6,1.46-3.23,2.4-4.73.81-1.29,1.82-2.42,2.81-3.57,2.57-3.03,5.09-6.11,7.63-9.17,1.78-2.15,3.57-4.29,5.27-6.5s3.17-4.8,5.26-6.77c1.79-1.69,3.83-3.12,5.89-4.46.87-.56,1.7-1.18,2.58-1.72,1.41-.86,2.8-1.48,3.36-3.17.96-2.87-.32-5.9-1.69-8.4-.77-1.41-1.64-2.76-2.35-4.2-.85-1.7-1.49-3.49-2.14-5.27-2.61-7.18-5.32-14.34-7.6-21.64-1.15-3.68-2.08-7.44-3.4-11.06-.85-2.32-1.9-4.57-3.13-6.72-1.68-2.93-3.79-5.45-5.77-8.16-2.36-3.23-4.25-6.76-6.23-10.23s-4.1-7.17-5.99-10.85c-.96-1.86-1.7-3.97-2.89-5.69-.87-1.25-2.14-2.04-3.55-2.54-1.68-.6-3.37-.91-4.92-1.85-1.38-.83-2.95-1.92-4.43-2.88-.81-.53-1.56.77-.76,1.3h0Z"/>
      </g>
      <g>
        <g>
          <path class="cls-1" d="M180.56,72.87c-.84-.59-1.75-1.07-2.72-1.4-2.67-.89-5.55-.53-8.28.3"/>
          <path class="cls-2" d="M180.94,72.22c-1.66-1.14-3.52-1.83-5.53-1.99s-4.1.23-6.05.81c-.92.28-.53,1.72.4,1.45,1.77-.53,3.6-.88,5.45-.77s3.48.76,4.97,1.79c.8.55,1.55-.75.76-1.3h0Z"/>
        </g>
        <g>
          <path class="cls-1" d="M150.75,180.46c-1.58,2.27-1.87,5.14-2.09,7.87-.46,5.62-.77,11.54,1.69,16.65,1.49,3.1,3.9,5.68,6.3,8.18,2.52,2.63,5.08,5.25,8.05,7.39,1.94,1.39,4.18,2.73,4.96,4.95"/>
          <path class="cls-2" d="M150.1,180.08c-1.86,2.83-2.05,6.27-2.3,9.55-.26,3.54-.38,7.12.26,10.63,1.32,7.23,6.91,12.64,12.08,17.46,1.47,1.37,3.01,2.64,4.65,3.8s3.4,2.27,4.15,4.17c.35.89,1.8.5,1.45-.4-.69-1.75-1.95-2.96-3.43-4.06-1.79-1.33-3.59-2.59-5.25-4.1-3.32-3.03-6.8-6.38-9.31-10.12s-3.35-8.39-3.3-13c.03-2.17.18-4.34.38-6.5.22-2.35.6-4.66,1.92-6.67.53-.81-.77-1.56-1.3-.76h0Z"/>
        </g>
        <g>
          <path class="cls-1" d="M133.87,184.92c.54,10.06,2.24,20.05,5.04,29.75.63,2.17,1.31,4.33,1.58,6.56.23,1.92.15,3.85.07,5.78-.07,1.61-.14,3.22-.2,4.82"/>
          <path class="cls-2" d="M133.12,184.92c.44,7.89,1.55,15.75,3.36,23.45.89,3.79,2.2,7.49,2.99,11.3s.3,8.16.13,12.18c-.04.97,1.46.96,1.5,0,.16-3.87.62-7.85-.02-11.69s-2.02-7.5-2.93-11.25c-1.91-7.87-3.08-15.9-3.53-23.98-.05-.96-1.55-.97-1.5,0h0Z"/>
        </g>
        <g>
          <path class="cls-1" d="M116.4,177.38c-1.23,2.83-2.46,5.65-3.69,8.48-.71,1.65-1.43,3.3-1.91,5.02-.54,1.95-.77,3.96-1,5.97-.27,2.38-.54,4.76-.81,7.15-.78,6.83-1.54,13.87.42,20.48"/>
          <path class="cls-2" d="M115.75,177c-1.67,3.84-3.49,7.64-4.97,11.56s-1.67,7.7-2.11,11.62c-.92,8.1-2.28,16.49.01,24.49.27.93,1.71.53,1.45-.4-2.21-7.7-.9-15.81-.01-23.61.45-3.95.7-7.96,2.11-11.7s3.2-7.48,4.82-11.2c.38-.88-.91-1.64-1.3-.76h0Z"/>
        </g>
        <g>
          <path class="cls-1" d="M49.1,224.63c1.23-.78,2.45-1.57,3.68-2.35,1.81-1.16,3.63-2.32,5.54-3.33,2.2-1.16,4.53-2.12,6.65-3.41,2.26-1.38,4.27-3.12,6.4-4.68,2.11-1.54,4.35-2.9,6.59-4.26,3.43-2.08,6.85-4.16,10.28-6.24,2.31-1.4,4.63-2.81,6.72-4.5-3.21,4-6.43,8-9.64,12-2.94,3.66-5.9,7.35-8.19,11.45-2.29,4.1-3.89,8.67-3.91,13.4"/>
          <path class="cls-2" d="M49.48,225.28c3.98-2.55,7.9-5.07,12.16-7.13,1.93-.93,3.8-1.93,5.55-3.18s3.5-2.72,5.32-4c3.72-2.61,7.71-4.86,11.59-7.22s7.86-4.54,11.39-7.37l-1.06-1.06c-4.81,5.99-9.85,11.87-14.37,18.08-4.13,5.67-7.48,12.13-7.59,19.3-.01.97,1.49.97,1.5,0,.11-7.06,3.56-13.35,7.65-18.91,4.39-5.97,9.23-11.64,13.87-17.41.61-.76-.3-1.67-1.06-1.06-3.55,2.83-7.62,5.03-11.5,7.38s-7.87,4.59-11.56,7.23c-1.68,1.2-3.26,2.53-4.94,3.73-1.88,1.34-3.9,2.38-5.97,3.38-4.11,1.99-7.89,4.47-11.73,6.93-.81.52-.06,1.82.76,1.3h0Z"/>
        </g>
        <g>
          <path class="cls-1" d="M128.97,159.96c4.24,7.57,11.73,13.36,20.28,15.68"/>
          <path class="cls-2" d="M128.33,160.34c4.45,7.84,12.05,13.62,20.72,16.02.93.26,1.33-1.19.4-1.45-8.31-2.3-15.57-7.82-19.83-15.33-.48-.84-1.77-.08-1.3.76h0Z"/>
        </g>
        <g>
          <path class="cls-1" d="M192.4,114.17c-2.56,4.21-4.54,8.74-6.92,13.05-2.38,4.31-5.24,8.49-9.19,11.54"/>
          <path class="cls-2" d="M191.76,113.79c-5.02,8.33-8.09,18.22-15.99,24.44-.76.6.31,1.65,1.06,1.06,8.01-6.3,11.14-16.3,16.23-24.74.5-.83-.8-1.58-1.3-.76h0Z"/>
        </g>
        <g>
          <path class="cls-1" d="M173.97,106.23c-3.61,4.8-7.64,9.3-12.04,13.43-2.83,2.66-5.93,5.34-7.18,8.98-.11.31-.2.64-.11.95.07.26.26.47.45.66,1.68,1.63,4.21,2.03,6.56,2.36"/>
          <path class="cls-2" d="M173.32,105.85c-2.32,3.07-4.8,6.01-7.44,8.81-2.47,2.62-5.2,4.98-7.7,7.56-1.06,1.1-2.07,2.27-2.88,3.56-.63,1.01-1.73,2.74-1.38,4s1.89,2.02,2.95,2.47c1.46.62,3.03.86,4.59,1.07.94.13,1.35-1.31.4-1.45-1.37-.19-2.76-.39-4.06-.86-.67-.25-1.55-.62-2.03-1.17-.65-.74-.13-1.5.25-2.27,1.32-2.65,3.58-4.69,5.71-6.68,4.7-4.39,9.01-9.14,12.89-14.27.58-.77-.72-1.52-1.3-.76h0Z"/>
        </g>
        <g>
          <path class="cls-1" d="M150.52,131.3c-1.23,8.95-5.27,17.51-11.45,24.26"/>
          <path class="cls-2" d="M149.8,131.1c-1.27,8.91-5.21,17.26-11.25,23.93-.65.71.41,1.78,1.06,1.06,6.21-6.85,10.33-15.43,11.64-24.59.13-.94-1.31-1.35-1.45-.4h0Z"/>
        </g>
        <g>
          <path class="cls-1" d="M181.07,215.22c4.39,5.32,9.04,10.83,15.48,13.53,2.24.94,4.63,1.5,6.9,2.36,5.25,1.99,10.17,5.62,15.79,5.33"/>
          <path class="cls-2" d="M180.54,215.75c4.72,5.71,9.73,11.51,16.88,14.13,1.93.71,3.92,1.22,5.84,1.94s3.68,1.63,5.5,2.49c3.32,1.57,6.75,3,10.49,2.86.96-.03.97-1.53,0-1.5-3.76.13-7.16-1.43-10.48-3.02-1.56-.75-3.11-1.5-4.72-2.14-1.9-.75-3.87-1.26-5.79-1.94-7.08-2.49-12-8.28-16.64-13.9-.62-.74-1.67.32-1.06,1.06h0Z"/>
        </g>
        <g>
          <path class="cls-1" d="M222.74,217.54c3.26-.11,6.53.08,9.75.56"/>
          <path class="cls-2" d="M222.74,218.29c3.19-.1,6.39.06,9.55.54.4.06.8-.1.92-.52.1-.35-.12-.86-.52-.92-3.3-.49-6.62-.7-9.95-.59-.96.03-.97,1.53,0,1.5h0Z"/>
        </g>
        <g>
          <path class="cls-1" d="M161.79,176.74c-.59,7.8-1.12,15.95,2.02,23.15,2.03,4.65,5.57,8.67,9.98,11.34"/>
          <path class="cls-2" d="M161.04,176.74c-.52,6.93-1.03,14.14,1.12,20.87,1.9,5.97,5.94,10.99,11.26,14.27.82.51,1.58-.79.76-1.3-5.25-3.24-9.13-8.27-10.82-14.22-1.81-6.37-1.3-13.12-.81-19.63.07-.96-1.43-.96-1.5,0h0Z"/>
        </g>
        <g>
          <path class="cls-1" d="M146.07,221.77c-.17,3.26,2.19,6.1,4.52,8.47,2.32,2.37,4.89,4.9,5.3,8.15"/>
          <path class="cls-2" d="M145.32,221.77c-.1,3.43,2.11,6.26,4.36,8.61s4.99,4.77,5.49,8.2c.14.95,1.58.55,1.45-.4-.47-3.21-2.76-5.68-4.94-7.91s-4.96-5-4.85-8.5c.03-.97-1.47-.96-1.5,0h0Z"/>
        </g>
        <g>
          <path class="cls-1" d="M210.4,84.53c.34,2.23.62,6.05-.53,10.56-1.24,4.83-3.56,8.2-5,10"/>
          <path class="cls-2" d="M209.68,84.73c1.03,7.01-.93,14.29-5.34,19.83-.6.75.46,1.82,1.06,1.06,4.78-6,6.84-13.7,5.73-21.29-.14-.95-1.59-.55-1.45.4h0Z"/>
        </g>
        <g>
          <path class="cls-1" d="M159.76,75.18c2.55,1.38,5.1,2.77,7.66,4.15.89.48,1.8.98,2.54,1.66,1.04.95,1.71,2.22,2.27,3.51,2.11,4.88,2.77,10.2,3.82,15.39.27,1.34.64,2.78,1.73,3.64.82.65,1.9.85,2.9,1.18,1.37.46,2.63,1.19,3.95,1.78,2.99,1.33,6.26,1.94,9.49,2.52.67.12,1.37.24,2.02.04.6-.19,1.08-.64,1.51-1.09,2.34-2.44,4.08-5.37,5.61-8.36,1.48-2.9,2.08-4.45,2.81-6.76.88-2.82,1.9-7.2,1.82-12.75"/>
          <path class="cls-2" d="M159.38,75.83c2.93,1.59,5.96,3.06,8.8,4.8s3.95,5.26,4.82,8.35,1.39,6.21,1.98,9.33c.48,2.5.82,5.31,3.43,6.44,1.34.58,2.75.9,4.08,1.55s2.63,1.26,4.02,1.72c1.49.5,3.01.86,4.55,1.18,1.37.28,2.88.73,4.29.72,2.62-.02,4.53-3.26,5.82-5.18,1.65-2.47,3.06-5.15,4.23-7.88,2.27-5.28,3.29-11.03,3.24-16.76,0-.96-1.51-.97-1.5,0,.05,4.95-.74,9.83-2.43,14.48-.93,2.55-2.19,5.01-3.55,7.35-.66,1.14-1.37,2.25-2.16,3.3-.83,1.11-2.1,3.12-3.64,3.18-1.37.05-2.99-.47-4.33-.76-1.46-.31-2.91-.67-4.32-1.16s-2.69-1.16-4.04-1.78c-1.24-.57-2.64-.81-3.85-1.43-1.27-.65-1.67-1.94-1.96-3.24-.34-1.53-.6-3.07-.89-4.61-.54-2.9-1.12-5.8-2.05-8.6s-2.07-5.61-4.61-7.29c-2.88-1.9-6.13-3.38-9.17-5.03-.85-.46-1.61.83-.76,1.3h0Z"/>
        </g>
        <g>
          <path class="cls-1" d="M192.88,76.21c.95,9.28,1.9,18.71.24,27.89"/>
          <path class="cls-2" d="M192.13,76.21c.94,9.19,1.88,18.52.27,27.69-.17.94,1.28,1.35,1.45.4,1.64-9.32.74-18.75-.21-28.09-.1-.95-1.6-.96-1.5,0h0Z"/>
        </g>
        <g>
          <path class="cls-1" d="M180.56,72.87c.47.32.92.68,1.35,1.06,3.94,3.5,5.99,8.66,6.52,13.81s-.34,10.34-1.47,15.4"/>
          <path class="cls-2" d="M180.18,73.51c9.38,6.65,8.23,19.62,6.06,29.42-.21.94,1.24,1.34,1.45.4,1.32-5.94,2.31-12.12,1.12-18.17-1-5.07-3.58-9.92-7.86-12.95-.79-.56-1.54.74-.76,1.3h0Z"/>
        </g>
        <g>
          <path class="cls-1" d="M169.56,71.77c-.72.21-1.43.46-2.12.73"/>
          <path class="cls-2" d="M169.36,71.04c-.72.21-1.42.46-2.12.73-.19.07-.34.16-.45.34-.09.16-.13.4-.08.58s.17.36.34.45.39.15.58.08c.7-.27,1.4-.52,2.12-.73.38-.11.65-.53.52-.92s-.52-.64-.92-.52h0Z"/>
        </g>
      </g>
      <g>
        <path class="cls-2" d="M155.97,40.69c4.19,3.06,6.72,7.24,8.57,12.01.93,2.41,1.76,4.86,2.53,7.32.64,2.04,1.07,3.86,2.83,5.21.77.59,1.51-.72.76-1.3-1.08-.83-1.41-1.94-1.8-3.19s-.75-2.39-1.14-3.58c-.8-2.4-1.65-4.78-2.65-7.1-1.84-4.3-4.56-7.91-8.35-10.67-.78-.57-1.53.73-.76,1.3h0Z"/>
        <g>
          <path class="cls-1" d="M186.73,57.02l-3.03-5.67c-.95-1.77-1.9-3.55-3.13-5.14-.47-.62-.99-1.2-1.42-1.85-2.19-3.26-1.96-7.45-1.95-11.35.01-4.53-.39-9.06-1.2-13.52-.61-3.42-1.49-6.85-3.29-9.85-2.52-4.17-6.83-7.28-11.66-8.41-7.37-1.74-13.16,1.6-14.32,2.31l-.09.04c-2.75,2.51-5.49,5.03-8.23,7.55,0,0-.01.01-.02.01-2.25,2.07-4.49,4.13-6.74,6.19-.69.64-1.41,1.3-1.82,2.14-.42.84-.48,1.92.1,2.66s1.61.99,2.28,1.64c.81.81.93,2.06.77,3.18-.17,1.12-.56,2.2-.57,3.33-.02,1.34.49,2.68.37,4,0,.12-.03.24-.05.36-.05.29-.14.57-.1.86.08.46.48.79.76,1.18,1.05,1.44.33,3.43.65,5.17.44,2.39,2.91,4.05,5.4,4.28,2.48.22,4.92-.72,7.08-1.93,1.16-.65,2.27-1.38,3.49-1.93.95-.42,1.95-.72,2.93-1.08,3.32-1.21,6.39-3.08,8.95-5.46.54-.5,1.06-1.03,1.41-1.66.23-.44.38-.91.51-1.39.6-2.14.81-6.77.84-7.16-.03.04-.35.42-.79.68-.05.04-.1.07-.16.1-.02.02-.04.03-.07.03-.05.02-.09.04-.14.06-.08.03-.16.05-.24.06-.04.01-.08.01-.12.01-.09.02-.19,0-.29-.01-.13-.03-.26-.09-.38-.18-.03-.02-.07-.04-.1-.07-.46-.37-.81-1.1-.81-2-.01-.03-.01-.05,0-.08v-.04c.01-.32.07-.67.18-1.03-.07.34-.14.68-.18,1.03v.04s-.01.05,0,.08c-.04.4-.01.8.13,1.18.12.33.37.63.68.82.03.03.07.05.1.07.21.12.44.19.67.19.04,0,.08,0,.12-.01.08,0,.16-.02.24-.06.03,0,.07-.01.1-.03,0,0,.03,0,.04-.03.03,0,.05-.01.07-.03.06-.03.11-.06.16-.1.25-.19.44-.46.69-.66.83-.7,2.06-.66,3.12-.94,2.41-.64,3.94-3.01,4.43-5.38.21-1.04.25-2.18-.31-3.08-.52-.84-1.48-1.35-2.46-1.58-.68-.16-1.41-.21-2.04.06-.64.27-1.13.93-1.02,1.59"/>
          <path class="cls-2" d="M187.38,56.64c-1.69-3.17-3.25-6.48-5.22-9.49-.87-1.32-2.01-2.47-2.78-3.86-.84-1.52-1.19-3.26-1.34-4.97-.27-3.21-.03-6.46-.21-9.68-.19-3.42-.62-6.84-1.27-10.21-1.12-5.79-3.42-11.1-8.29-14.68-4.52-3.32-10.33-4.5-15.79-3.3-1.89.41-3.74,1.1-5.43,2.03-2.12,1.15-3.83,3.2-5.6,4.83-2.5,2.3-5,4.59-7.5,6.88-1.14,1.05-2.33,2.06-3.43,3.16-.95.94-1.79,2.08-1.77,3.48,0,1.08.58,1.92,1.45,2.51.63.43,1.42.68,1.8,1.39.46.87.28,1.93.09,2.84-.29,1.46-.52,2.73-.3,4.23.13.88.31,1.73.21,2.62-.08.64-.23,1.15.09,1.76s.85,1,1.03,1.67c.21.79.09,1.64.08,2.44-.02,1.23.14,2.43.82,3.49,1.33,2.08,3.88,3.15,6.29,3.11,3.71-.06,6.48-2.27,9.67-3.8,1.64-.79,3.43-1.24,5.1-1.99s3.14-1.6,4.58-2.62c1.3-.93,2.65-1.95,3.68-3.19.89-1.07,1.24-2.38,1.47-3.73.34-2.01.45-4.04.59-6.06.04-.63-.86-1.02-1.28-.53-1.44,1.68-2.02-.4-1.67-1.74l-1.45-.4c-.23,1.12-.44,2.39.3,3.38.61.81,1.71,1.24,2.66.78.5-.24.78-.74,1.25-1.03.68-.41,1.54-.41,2.29-.57,1.44-.32,2.65-1.11,3.58-2.26,1.62-2.01,2.93-5.82.89-7.97-1.64-1.73-6.54-2.45-6.46,1.03.02.96,1.52.97,1.5,0-.04-1.67,2.51-.96,3.33-.44,1.17.73,1.27,2.02,1.02,3.25-.33,1.66-1.21,3.35-2.66,4.3s-3.21.57-4.54,1.58c-.43.32-.78,1.02-1.33.73-.8-.43-.53-1.67-.39-2.37.19-.94-1.2-1.34-1.45-.4-.35,1.35-.28,3.11.97,4,1.11.79,2.41.12,3.2-.8l-1.28-.53c-.11,1.55-.19,3.1-.39,4.65-.13,1.01-.28,2.06-.64,3.02-.53,1.41-1.95,2.47-3.1,3.37-2.37,1.86-5.04,3.21-7.87,4.2-1.34.47-2.61.97-3.84,1.67-1.35.77-2.66,1.61-4.12,2.18-2.63,1.03-5.96,1.29-8.09-.92-1.98-2.06-.35-4.8-1.61-7.08-.43-.78-.75-1.12-.73-2.14.01-.59.03-1.13-.05-1.72-.1-.75-.27-1.49-.29-2.25-.02-.86.2-1.68.38-2.52.24-1.15.39-2.35-.02-3.48s-1.18-1.6-2.11-2.17c-1.8-1.1-1.08-2.67.17-3.92,1.1-1.1,2.29-2.11,3.43-3.16,2.26-2.08,4.52-4.15,6.78-6.23,1.19-1.1,2.38-2.19,3.58-3.28.68-.62,1.31-1.31,2.11-1.78,1.37-.82,2.9-1.4,4.43-1.82,5.24-1.43,10.86-.45,15.3,2.69,4.85,3.43,6.93,8.78,7.99,14.43.67,3.58,1.07,7.2,1.2,10.84.12,3.2-.17,6.45.3,9.63.2,1.38.57,2.73,1.19,3.97.74,1.48,1.92,2.66,2.84,4.02,2.05,3.04,3.62,6.45,5.35,9.68.46.85,1.75.09,1.3-.76h0Z"/>
        </g>
        <g>
          <path class="cls-1" d="M138.16,11.3c1.19-.9,2.87-.63,4.33-.32,1.29.27,2.61.56,3.71,1.27,1.13.73,1.92,1.85,2.68,2.94"/>
          <path class="cls-2" d="M138.54,11.94c.75-.54,1.63-.57,2.53-.47.94.11,1.89.33,2.8.59s1.78.61,2.49,1.23,1.31,1.46,1.87,2.26,1.85.04,1.3-.76c-.65-.93-1.31-1.88-2.17-2.62s-1.95-1.25-3.08-1.56c-1.99-.55-4.65-1.27-6.49.03-.78.55-.03,1.86.76,1.3h0Z"/>
        </g>
        <g>
          <path class="cls-1" d="M143.48,12.2c.04-.35-.43-.58-.76-.45s-.52.47-.65.79c-.38,1-.39,2.12-.06,3.13.07.23.17.46.36.62s.5.19.68.03c.1-.09.14-.21.18-.34.35-1.13.49-2.33.39-3.52"/>
          <path class="cls-2" d="M144.23,12.2c.03-.54-.37-.99-.86-1.16s-1.01-.02-1.4.31c-.35.3-.54.76-.68,1.19-.15.46-.23.96-.25,1.44s.03.98.14,1.46.27.98.62,1.33c.4.4,1.04.52,1.54.26s.63-.84.76-1.34c.26-1.05.36-2.15.28-3.23-.03-.39-.32-.77-.75-.75-.38.02-.78.33-.75.75s.04.85.02,1.27c-.03.45-.06.72-.15,1.14-.05.22-.1.44-.16.66-.03.1-.06.21-.09.31.04-.08.04-.08,0,0l.04-.05c.07-.08.16-.12.26-.11-.09,0-.08,0,.02,0,.08.04.08.04,0,0,.06.05.06.04,0-.02.05.06.04.05,0-.03-.04-.08-.04-.09-.01-.02-.03-.08-.06-.17-.08-.25-.13-.43-.16-.68-.17-1.09,0-.45.02-.68.13-1.1.02-.09.05-.18.08-.27.01-.03.13-.3.06-.16.04-.08.08-.16.13-.23-.1.17.11-.11.02-.03-.04.03-.03.02.03-.02.08-.04.08-.04,0,0-.11,0-.12.01-.04,0-.11-.02-.12-.02-.04,0,.08.03.07.02-.03-.02.07.04.06.04-.03-.02-.05-.05-.08-.1-.09-.17,0-.12-.01-.14-.01-.05-.02.39.36.77.75.75.42-.02.73-.33.75-.75h0Z"/>
        </g>
        <g>
          <path class="cls-1" d="M131.15,19.53c1.61-.14,3.4-.06,4.89.3s2.64.99,2.87,1.68c.26.81-.69,1.61-.19,2.4"/>
          <path class="cls-2" d="M131.15,20.28c1.93-.16,4.07-.12,5.89.64.32.13.66.3.92.52.12.1.19.19.23.25l.03.06c-.03-.08-.03-.07,0,.05,0-.03-.01.13,0,.09-.03.33-.24.67-.32,1.01-.11.49-.06.95.19,1.39.48.84,1.77.08,1.3-.76-.13-.24.07-.58.16-.86.15-.44.23-.91.1-1.37-.25-.84-1.12-1.37-1.88-1.7-2.04-.89-4.42-1.02-6.61-.83-.4.03-.75.32-.75.75,0,.38.34.78.75.75h0Z"/>
        </g>
        <g>
          <path class="cls-1" d="M132.64,34.31c2.06-.56,4.82-.51,6.91.12"/>
          <path class="cls-2" d="M132.84,35.03c2.1-.56,4.44-.49,6.51.12.93.28,1.32-1.17.4-1.45-2.33-.69-4.97-.75-7.31-.12-.93.25-.54,1.7.4,1.45h0Z"/>
        </g>
        <g>
          <path class="cls-1" d="M150.06,21.52c.74.14,1.5.27,2.24.12,1.13-.24,2-1.12,3.1-1.47"/>
          <path class="cls-2" d="M149.86,22.24c1.15.21,2.26.34,3.36-.12.43-.18.83-.42,1.23-.66.19-.11.39-.23.59-.33.23-.12.33-.17.55-.24.38-.13.64-.52.52-.92-.1-.37-.54-.65-.92-.52-.86.29-1.57.82-2.38,1.22-.29.14-.68.27-1.08.29-.5.02-.99-.07-1.48-.16-.4-.07-.81.11-.92.52-.1.36.12.85.52.92h0Z"/>
        </g>
        <g>
          <path class="cls-1" d="M159.95,42.39c1.19-.16,2.2-.92,3.13-1.66.81-.64,1.63-1.28,2.29-2.05"/>
          <path class="cls-2" d="M160.15,43.12c1.14-.17,2.13-.82,3.03-1.51.96-.74,1.93-1.48,2.73-2.39.26-.31.3-.76,0-1.06-.27-.27-.79-.31-1.06,0-.73.85-1.62,1.54-2.5,2.22-.77.59-1.6,1.15-2.59,1.3-.4.06-.62.57-.52.92.12.43.52.58.92.52h0Z"/>
        </g>
      </g>
    </g>
  </g>
</svg>