<?xml version="1.0" encoding="UTF-8"?>
<svg id="Lag_1" data-name="Lag 1" xmlns="http://www.w3.org/2000/svg" viewBox="0 0 634.08 631.9">
  <defs>
    <style>
      .cls-1 {
        fill: #d81e1c;
        stroke: #f1f1f1;
        stroke-miterlimit: 10;
      }

      .cls-2 {
        fill: #f2f4d9;
        stroke-width: 0px;
      }
    </style>
  </defs>
  <ellipse class="cls-1" cx="317.04" cy="315.95" rx="316.54" ry="315.45"/>
  <g>
    <path class="cls-2" d="M240.7,284.32c7.44-2.09,4.78-2.48,19.54-9.03,15.79-7.01,33.19-9.95,49.75-15.1,16.38-5.1,32.12-12.4,49.12-15.08,11.96-1.88,10.83,30.16,1.25,38.27-4.63,3.92-11.41,3.98-35.79,7.91-.51.08-1.46.24-2.72.45-2.69.45-6.79,1.16-11.72,2.12,0,0-2.85.55-5.54,1.12-11.19,2.33-31.36,8.97-41.8,11.98-21.45,6.2-32.18,9.29-42.96,6.23-5.34-1.52-12.73-4.8-21.31-8.61-11.13-4.94-16.89-6.96-17.89-7.45-12.06-5.8-30.99-17.29-42.28-24.15-2.31-1.4-6.56-4-10.42-2.64-2.33.82-2.99,2.55-6.13,3.12-2.04.37-5.07.25-6.07-1.39-.5-.83-.32-1.76-.19-2.41,1.51-7.85-.42-2.9,3.07-15.37.36-1.29.7-2.45,1.78-3.36,1.68-1.42,4.01-1.26,4.74-1.21,2.5.17,4.3,1.35,4.77,1.65,4.17,2.69,9.14,3.93,13.54,6.24,9.73,5.13,10.32,4.24,19.63,9.05,7.87,4.06,11.79,6.94,15.5,9.17,16.78,10.08,41.45,14.29,62.14,8.48Z"/>
    <path class="cls-2" d="M121.95,249.7c2.04-2.37,2.46-5.93,1.03-8.7-5.33-2.1-10.54-4.5-15.59-7.18-2.91-1.54-5.79-3.19-8.94-4.19-4.1-1.3-8.49-1.45-12.8-1.59.15,3.72.29,7.45.44,11.17.09,2.21.16,4.49-.74,6.52-.64,1.46-1.75,2.69-2.5,4.11-1.77,3.34-1.44,7.47-3.37,10.72-1.34,2.26-3.68,3.94-4.55,6.4-.41,1.18-.45,2.44-.62,3.68-.83,6.06-4.82,11.82-3.62,17.82.28,1.39.87,2.78,2,3.67.9.7,2.04,1.03,3.15,1.34,2.41.67,4.83,1.34,7.24,2.01,2.71.75,5.43,1.51,8.21,1.94,1.96.3,4.06.42,5.83-.43,3.73-1.79,4.18-6.62,5.88-10.3,1.81-3.93,5.58-6.95,9.91-7.95,1.34-.31,2.76-.44,3.98-1.06s2.23-1.93,1.91-3.23"/>
    <path class="cls-2" d="M85.39,228.23c-2.46-1.47-7.79,3.56-8.24,4-2.22,2.13-3.1,4.2-4.88,7.84-.76,1.56-1.54,3.28-1.11,4.96.3,1.21,1.19,2.2,1.79,3.31,1.33,2.45,1.21,5.51-.04,7.99-.66,1.31-1.61,2.48-2.18,3.84-.34.8-.85,3.03.26,4.17,1.13,1.15,3.45.62,4.72.05,2.63-1.19,3.75-3.91,4.65-6.19,1.24-3.13.48-3.38,1.55-6.19,1.63-4.27,3.58-4.15,4.65-7.73.22-.73.29-1.24,0-7.73-.32-7.11-.46-7.9-1.18-8.33Z"/>
    <path class="cls-2" d="M116.28,227.94c.16.79.35,1.62.91,2.2.57.59,1.65.78,2.2.18.18-.2.28-.45.37-.69,1.92-4.9,3.85-9.79,5.77-14.69.43-1.08.85-2.18.94-3.34.06-.78-.04-1.59.15-2.35.27-1.11,1.1-2.01,1.52-3.08.91-2.33-.59-5.26-3.06-5.97,1.15-1.36,2.32-2.76,2.92-4.42.6-1.66.54-3.66-.63-5.01-1.95-2.25-5.63-1.66-8.5-2.6-.41-.13-.83-.32-1.08-.67-.48-.67-.08-1.64.58-2.13s1.52-.67,2.3-.96c4.16-1.5,6.42-6.67,4.62-10.61-1.57-3.44-5.59-5.7-6.23-9.41-.16-.94-.08-1.92-.38-2.83-.5-1.56-1.98-2.62-3.47-3.41-2.21-1.17-4.86-1.97-7.23-1.15-1.55.54-2.91,1.76-4.56,1.75-1.51-.01-2.81-1.07-4.29-1.32-2.36-.4-4.63,1.37-5.59,3.5s-.92,4.52-.96,6.83c0,.42-.02.85-.21,1.23-.22.43-.65.72-1.1.92-2.2.96-4.86-.15-7.16.58-2.33.73-3.61,3.08-4.6,5.25-.9,1.96-1.61,4.58.07,5.99.33.27.73.48.95.84.6.97-.47,2.04-1.02,3.03-1.27,2.28.46,5.2,2.82,6.43,2.36,1.23,5.14,1.31,7.78,1.75.59.1,1.22.23,1.65.64.67.63.63,1.71.29,2.55-.34.85-.91,1.59-1.19,2.46-.85,2.62,1.9,5.64,4.7,5.16,1.26-.22,2.69-.96,3.7-.19.59.45.75,1.27,1.29,1.78,1.13,1.07,3.02.22,4.19-.8s2.52-2.3,4.05-1.94c1.28.3,1.96,1.62,2.48,2.79,3.1,7.05,6.26,14.55,5.13,22.12l-.13-.41Z"/>
    <ellipse class="cls-2" cx="367.47" cy="261.05" rx="15.52" ry="23.19"/>
    <path class="cls-2" d="M355.67,121.77c-.17-1.03.59-2.05,1.58-2.46.98-.42,2.12-.34,3.17-.09,1.52.36,3.02,1.14,3.82,2.44.87,1.4.81,3.17.48,4.77-.76,3.67-3.14,7.33-6.87,8.32-1.65.44-3.56.37-4.85,1.45-.5.42-.88,1-1.48,1.27-1.14.51-2.53-.38-2.96-1.52-.43-1.14-.18-2.41.07-3.6-.83,2.72.37,4.95,1.73,5.25,1.35.3,2.73-1.34,2.8-1.43-.04.6-.37,7.75-1.29,11.06-.2.73-.43,1.47-.8,2.14-.54.99-1.35,1.8-2.18,2.57-3.98,3.68-8.74,6.57-13.9,8.45-1.52.55-3.07,1.02-4.54,1.67-1.89.84-3.62,1.97-5.42,2.98-3.35,1.87-7.14,3.33-10.99,2.98-3.85-.35-7.69-2.92-8.37-6.61-.5-2.69.62-5.77-1.01-8.01-.43-.59-1.05-1.11-1.17-1.82-.07-.44.06-.88.15-1.32.42-2.23-.53-4.48-.5-6.75.02-1.74.63-3.42.88-5.15.25-1.73.07-3.67-1.19-4.91-1.03-1.02-2.64-1.4-3.53-2.54-.9-1.15-.81-2.81-.16-4.11s1.75-2.32,2.84-3.31c7.75-7.09,15.5-14.17,23.25-21.26l.14-.07c1.79-1.09,10.77-6.26,22.21-3.58,7.5,1.76,14.19,6.57,18.09,13.02,2.8,4.63,4.16,9.94,5.12,15.23,1.25,6.9,1.87,13.91,1.86,20.91-.01,6.02-.37,12.5,3.03,17.55.67,1,1.47,1.9,2.21,2.85,1.91,2.47,3.39,5.21,4.85,7.95,1.99,3.7,3.97,7.41,5.96,11.11.51.78,1.35,2,2.46,3.43,3.19,4.07,6.86,5.72,19.23,16.04,2.8,2.33,5.67,4.71,9.11,6.05,2.9,1.13,6.27,1.58,8.43,3.74,1.08,1.08,1.73,2.49,2.38,3.85,3.89,8.2,8.43,16.1,12.97,23.99,1.56,2.71,3.12,5.42,4.68,8.13,2,3.48,4.04,6.11,5.38,7.93,6.81,8.06,10.35,15.36,12.34,20.62,2.19,5.79,2.65,9.03,7.18,22.98,1.05,3.24,2.21,6.44,3.38,9.64,2.24,6.18,4.49,12.36,6.73,18.54,1.11,3.07,2.23,6.14,3.75,9.04,2.83,5.39,7.17,10.77,6.16,16.73-.18,1.05-.54,2.09-1.23,2.92-.7.83-1.68,1.38-2.65,1.9-1.67.9-5.91,3.5-15.65,11.51-5.15,7.13-9.61,12.68-12.79,16.51-9.24,11.11-13.87,16.65-14.31,17.15-1.43,1.64-2.87,3.28-4.07,5.08-1.36,2.04-2.41,4.27-3.44,6.48-2.79,5.97-5.58,11.94-8.38,17.91-2.5-.71-4.96-1.55-7.37-2.5-.67-.26-1.41-.61-1.62-1.28-.13-.41-.03-.85.07-1.27,3.46-13.7,12.07-25.56,18.2-38.36,1.08-2.26,2.09-4.55,3.16-6.81,5.11-10.74,11.83-20.77,19.88-29.67l-.32-.26c-4.85-17.85-5.97-31.5-8.79-40.6-2.74-8.83-5.48-17.66-8.21-26.48-1.1-3.56-2.59-7.55-6.14-8.98-.86-.35-1.9-.5-2.67,0-.65.42-.95,1.18-1.21,1.89-3.91,10.79-8.16,21.47-12.72,32.03-2.39,5.53-4.9,11.07-8.37,16.04-1.91,2.73-4.17,5.33-7.09,7.03-2.28,1.32-4.9,2.05-7.09,3.51-1.68,1.12-3.04,2.61-4.33,4.14-6.88,8.18-12.04,17.7-15.09,27.82-1.73,3.54-3.78,8.45-4.95,13.78-.41,1.87-.8,3.99,0,6.3.57,1.65,1.73,3.04,2.86,4.4,4.77,5.71,9.57,11.44,15.16,16.41,2.64,2.35,5.45,4.52,8.25,6.68,8.84,6.83,18.03,13.84,28.98,16.61,5.32,1.35,10.86,1.64,16.26,2.65,4.87.92,9.63,2.43,14.56,3.04,10.59,1.32,21.67-1.55,31.86,1.56,1.58.48,3.21,1.18,4.07,2.55,1.56,2.47-.13,5.59-1.82,7.96-4.21,5.88-8.71,11.57-13.48,17.04-7.22,7.81-14.32,12.4-19.23,14.49-7.54,3.2-15.62,5.02-23.64,6.82-7.7,1.73-15.62,3.46-23.43,2.3-6.41-.95-12.35-3.81-17.86-7.11-2.93-1.75-6.09-3.71-9.51-3.32-1.64.19-3.15.91-4.65,1.57-9.62,4.23-20.32,6.16-30.88,5.57-4.05-.23-8.08-.82-12.13-.71-6.1.16-10.11,1.02-13.35,1.53-5.32.83-13.17,1.4-23.56-.13-9.48-3.17-16.5-5.86-21.41-7.6-2.2-.78-4.47-1.57-6.81-1.46-6.05.3-9.84,6.14-14.43,9.95-5.75,4.77-13.95,6.63-21.3,4.81-3.43-.85-6.63-2.43-9.6-4.29-4.12-2.59-8.22-6.56-7.76-11.29-2.02,2.09-5.75,1.88-7.75,3.99-.7.73-1.11,1.68-1.74,2.47-1.86,2.34-5.42,2.93-8.34,2.05-2.92-.88-5.29-2.95-7.31-5.17-1.35-1.48-2.62-3.08-4.38-4.08-3.03-1.72-6.82-1.28-10.29-.79-5.11.72-10.22,1.44-15.33,2.16-6.84.96-15.02,1.46-19.41-3.71-1.11-1.3-1.84-2.86-2.84-4.25-2.64-3.69-6.97-6.02-9.61-9.71-3.36-4.71-3.47-10.83-3.46-16.55,0-2.18.17-4.68,1.96-5.99.87-.63,1.97-.86,3.04-1.04,12.09-2.05,24.52-.31,36.79-1.01,3.95-.23,7.98-.74,11.46-2.54,1.84-.95,3.47-2.24,5.24-3.31,2.69-1.63,5.69-2.73,8.66-3.82,6.57-2.42,13.13-4.83,19.7-7.25,19.77-10.8,28.69-15,33.08-16.71.86-.34,3.82-1.48,7.62-3.44,3.81-1.96,6.46-3.79,8.77-5.36,5.65-3.86,10.83-7.44,15.75-10.87l.1-.17c5.95-4.08,10.05-8.13,12.71-11.1,5.74-6.42,7.42-10.77,13.51-15.26,4.03-2.97,7.97-4.51,10.67-5.35,6.25-5.95,11.37-13,15.04-20.71,1.02-2.14,1.94-4.35,3.31-6.31.9-1.29,1.98-2.44,2.91-3.7,1.4-1.91,2.45-4.03,3.44-6.17,1.3-2.81,2.53-5.65,3.75-8.5,2.14-4.96,4.27-9.92,6.41-14.88.81-1.87,1.62-3.78,1.75-5.81.17-2.82-.69-5.16-1.41-6.65l.02-.96c3.84.03,7.68-.43,11.39-1.39,2.14-.55,4.34-1.32,5.82-2.92,1.34-1.45,1.93-3.4,2.34-5.3.94-4.27,1.22-8.64,1.35-13,.08-2.77.09-5.53-.07-8.3-.14-2.26-.41-4.58-1.46-6.6-1.05-2.03-3.04-3.73-5.37-3.93-1.59-.13-3.14.43-4.69.78-1.01.23-2.37.56-3.82,0-.35-.14-.62-.3-.8-.41.05-.29.15-.8.37-1.41.95-2.65,3.17-4.58,3.49-4.85.55-.48,1.16-.95,1.46-1.6.28-.6.28-1.28.26-1.94-.37-13.5-3.79-26.75-7.75-39.7-1.63-5.32-3.35-10.63-5.41-15.81-1.48-3.72-3.16-7.4-5.6-10.62-2.77-3.65-5.72-6.12-7.83-7.64"/>
    <path class="cls-2" d="M352.84,493.75c-2.73,6.01,3.84,10.78,2.05,25.54-1.07,8.87-3.96,11.37-2,15.14,1.48,2.85,4.86,4.76,26.83,6.51,24.3,1.94,27.28.18,28.8-1.85,2.85-3.81-.38-7.37-.87-19.8-.61-15.49,4.07-18.62,1.53-24.13-6.77-14.66-50.25-14.81-56.34-1.42Z"/>
    <path class="cls-2" d="M327.96,495.21c.11,1.91-.71,2.97-2.45,6.08-8.98,16.06-6.81,23.45-11.5,30.25-11.37,16.49-52.23,13.78-57.91,1.27-1.93-4.26,1.3-7.25-.77-16.73-1.99-9.12-5.93-10.66-5.87-15.63.11-9.45,14.56-18.21,26.3-21.37,23.44-6.31,51.56,5.54,52.2,16.13Z"/>
  </g>
</svg>