<?xml version="1.0" encoding="UTF-8"?>
<svg id="Layer_1" data-name="Layer 1" xmlns="http://www.w3.org/2000/svg" viewBox="0 0 372.64 502.94">
  <defs>
    <style>
      .cls-1 {
        fill: none;
        stroke: #c8362a;
        stroke-miterlimit: 10;
        stroke-width: 3px;
      }

      .cls-2 {
        font-size: 97.48px;
      }

      .cls-2, .cls-3 {
        font-family: Alef-Regular, Alef;
      }

      .cls-2, .cls-3, .cls-4 {
        fill: #c8362a;
      }

      .cls-3 {
        font-size: 64.33px;
      }

      .cls-4 {
        stroke-width: 0px;
      }
    </style>
  </defs>
  <text class="cls-2" transform="translate(13.14 414.59)"><tspan x="0" y="0">DINGSE</tspan></text>
  <text class="cls-3" transform="translate(16.32 481.35)"><tspan x="0" y="0">FRISKBAGT</tspan></text>
  <line class="cls-1" x1="350.89" y1="424.69" x2="22.04" y2="424.69"/>
  <g>
    <g>
      <path class="cls-4" d="M240.09,135.13c0,3.63-1.33,7.78-3.04,10.96-1.35,2.53-3.6,4.18-6.18,5.34-5.18,2.33-11.06,2.78-16.65,3.28-4.94.44-9.76,1.52-14.59,2.6-6.47,1.45-12.74,3.44-19.01,5.59-6.74,2.31-13.44,4.7-20.22,6.88-5.93,1.9-12.27,4.16-18.59,3.88-2.63-.12-5.09-.86-7.51-1.84-3.89-1.57-7.63-3.5-11.38-5.36-3.26-1.62-6.55-3.21-9.88-4.7-1.56-.7-3.1-1.35-4.6-2.19-6.42-3.6-12.57-7.69-18.68-11.78-2.9-1.94-5.79-3.91-8.67-5.88-2.5-1.71-5.63-3.91-8.79-2.56-1.5.64-2.44,2.05-4.1,2.39-.77.16-1.71.22-2.46-.05-1.29-.46-1.04-1.61-.87-2.71.23-1.41.32-2.82.48-4.24.27-2.42.99-4.83,1.59-7.19.26-1.03.55-2.09,1.53-2.66.69-.41,1.54-.47,2.32-.4,1.81.17,3.06,1.36,4.56,2.22,1.78,1.02,3.7,1.78,5.55,2.66s3.64,2.03,5.48,3.01c2.31,1.23,4.75,2.21,7.08,3.4,3.42,1.75,6.71,3.79,9.86,5.99,2.42,1.69,4.77,3.47,7.35,4.93,12.49,7.07,29.21,9.41,42.77,4.06,1.3-.51,2.46-1.2,3.64-1.94,2.36-1.5,4.81-2.85,7.3-4.13,8.02-4.12,16.66-6.61,25.26-9.18,4.29-1.28,8.56-2.61,12.75-4.18s8.34-3.34,12.51-5.01,8.19-3.21,12.4-4.45c1.01-.3,2.03-.58,3.05-.83.51-.13,1.02-.25,1.54-.36s1.44-.47,1.99-.41c.84.09,1.78,1.01,2.39,1.55.82.73,1.52,1.57,2.09,2.51,1.86,3.04,1.74,7.37,1.71,10.8,0,.97,1.49.97,1.5,0,.02-2.21-.09-4.42-.39-6.61-.2-1.42-.44-2.89-1.09-4.18-.89-1.78-2.26-3.31-3.87-4.47-.57-.41-1.37-1.08-2.09-1.15-.97-.09-2.34.45-3.29.67-9.03,2.12-17.48,6.06-26.07,9.44s-17.44,5.66-26.17,8.5c-7.54,2.45-14.86,5.59-21.6,9.79-1.24.77-2.44,1.6-3.8,2.15-3.11,1.28-6.51,2.02-9.83,2.44-8.12,1.03-16.49-.02-24.18-2.76-3.74-1.33-7.33-3.09-10.63-5.3-2.55-1.71-4.98-3.58-7.57-5.23-3.07-1.96-6.25-3.75-9.57-5.26-3.1-1.41-5.96-3.17-9-4.7-1.9-.96-3.89-1.72-5.76-2.72-1.45-.78-2.71-1.91-4.29-2.43-1.34-.44-2.95-.5-4.25.09-1.78.81-2.31,2.48-2.75,4.24-.58,2.34-1.27,4.71-1.53,7.11-.17,1.64-.37,3.25-.6,4.88-.53,3.73,3.73,4.36,6.42,3.22,1.53-.64,2.5-2.18,4.23-2.38,1.95-.22,3.79.94,5.33,1.98,6.22,4.18,12.39,8.45,18.71,12.49,4.62,2.95,9.23,5.83,14.24,8.07,7.31,3.26,14.3,7.26,21.73,10.26,2.52,1.02,5.07,1.74,7.79,1.88s5.52-.26,8.21-.84c7.3-1.57,14.43-4.16,21.48-6.61s13.79-4.92,20.8-6.98c5.87-1.72,11.93-2.95,17.95-4.04,4.91-.89,9.94-.84,14.85-1.87,5.75-1.21,11.44-3.51,13.96-9.19,1.43-3.21,2.64-6.94,2.64-10.49,0-.97-1.5-.97-1.5,0Z"/>
      <path class="cls-4" d="M69.3,124.12c1.46-2.02,1.95-4.95.9-7.27-.34-.74-1-.87-1.72-1.2s-1.44-.66-2.16-1c-1.65-.79-3.27-1.63-4.88-2.5-2.85-1.56-5.56-3.46-8.58-4.65s-6.56-1.37-9.9-1.48c-.4-.01-.76.35-.75.75.06,1.96.12,3.92.19,5.87s.28,4.03.05,5.99c-.21,1.79-1.18,3.05-1.98,4.59s-1.11,3.15-1.43,4.8-.64,3.25-1.56,4.67c-.82,1.26-1.92,2.34-2.58,3.71-.7,1.46-.66,3.06-.93,4.63-.32,1.84-.93,3.61-1.47,5.39-.9,2.94-1.79,6.28-.74,9.31,1.12,3.24,4.74,3.64,7.63,4.52,1.79.55,3.58,1.13,5.41,1.56,1.65.39,3.46.79,5.16.44,2.7-.57,3.9-3.04,4.69-5.43,1.1-3.34,2.13-6.45,5.31-8.38,2.3-1.39,7.62-1.25,7.16-5.15-.11-.95-1.61-.96-1.5,0,.24,2.08-2.18,2.29-3.64,2.68-1.2.32-2.36.86-3.38,1.57-2.08,1.46-3.56,3.5-4.44,5.88-.82,2.23-1.16,5.5-3.33,6.89-1.52.98-3.55.53-5.19.17s-3.29-.88-4.92-1.38-3.4-.97-5.06-1.55c-1.87-.65-2.63-2-2.81-3.92-.3-3.19.98-6.27,1.86-9.27.42-1.44.74-2.88.91-4.37.19-1.68.55-3.02,1.57-4.39.84-1.14,1.75-2.17,2.31-3.49s.8-2.69,1.06-4.07c.35-1.87.84-3.47,1.83-5.11.82-1.37,1.4-2.68,1.56-4.28.19-1.82.03-3.68-.03-5.5-.07-2.12-.14-4.24-.2-6.36l-.75.75c2.91.09,5.87.19,8.66,1.12s5.13,2.58,7.61,3.99,5.03,2.73,7.63,3.93c.64.3,1.76.57,2.1,1.23.27.52.29,1.31.28,1.87,0,1.36-.44,2.61-1.23,3.71-.57.78.73,1.53,1.3.76h0Z"/>
      <path class="cls-4" d="M43.15,106.26c-1.8-1-3.89.69-5.2,1.81-1.62,1.38-2.91,2.97-3.84,4.89-.75,1.54-1.58,3.17-2.05,4.82s-.14,3.02.69,4.49c1.02,1.78,1.36,3.69.73,5.68-.49,1.55-1.61,2.81-2.04,4.38-.67,2.48.52,4.84,3.33,4.26s4.09-3.08,4.98-5.54c.47-1.29.6-2.51.85-3.83.3-1.58,1.02-3.01,1.99-4.28s1.75-2.6,1.85-4.2c.18-2.89-.09-5.88-.26-8.77-.07-1.17.06-2.95-1.04-3.72-.79-.55-1.54.75-.76,1.3-.08-.05.03.03.09.32.14.69.16,1.4.21,2.1.15,2.53.25,5.07.27,7.6.01,1.16.01,1.81-.51,2.9-.39.81-1.01,1.48-1.52,2.21-.75,1.06-1.29,2.28-1.63,3.53-.23.87-.25,1.77-.44,2.64-.26,1.23-.74,2.51-1.32,3.63-.54,1.06-1.28,2-2.42,2.45-.48.19-1.2.41-1.71.21-.83-.33-.71-1.45-.57-2.16.26-1.28,1.13-2.34,1.67-3.51.57-1.23.86-2.59.81-3.95-.05-1.23-.38-2.39-.95-3.48-.35-.67-.84-1.3-.99-2.06-.23-1.15.28-2.31.73-3.34.97-2.24,1.88-4.54,3.62-6.31.84-.86,3.33-3.54,4.69-2.79.85.47,1.6-.83.76-1.3Z"/>
      <path class="cls-4" d="M63.96,106.8c.2,1.04.55,2.22,1.66,2.61.94.32,1.75-.14,2.14-.99.72-1.56,1.19-3.3,1.76-4.93.63-1.78,1.27-3.56,1.9-5.33.54-1.53,1.2-3.05,1.29-4.69.06-1.02.13-1.73.59-2.64.28-.55.56-1.08.69-1.68.46-2.16-.76-4.38-2.8-5.16l.45,1.1c1.45-1.92,2.92-4.16,2.33-6.69-.55-2.34-2.62-3.07-4.76-3.38-.67-.1-3.77-.43-2.27-1.54.46-.33,1.11-.43,1.62-.68s1-.6,1.42-.98c1.45-1.32,2.28-3.29,2.39-5.23.12-2.15-.81-3.95-2.1-5.61-.74-.95-1.57-1.87-2.14-2.94-.69-1.3-.47-2.63-.86-3.99-.63-2.2-3.2-3.68-5.29-4.19-1.06-.26-2.17-.28-3.21.1-1.29.48-2.31,1.69-3.78,1.19-1.01-.35-1.85-.95-2.97-.89-.99.05-1.92.57-2.63,1.24-1.86,1.76-2.06,4.45-2.11,6.86-.02.95.07,1.78-1.14,2.07-.69.16-1.48.02-2.18,0-1.16-.04-2.28.1-3.25.79-1.72,1.23-2.82,3.76-3.25,5.77-.19.88-.26,1.83.05,2.69.15.42.4.78.71,1.1.07.07.43.29.48.41.22.52-.34,1.14-.56,1.56-.95,1.82-.39,3.87.98,5.32,1.87,1.99,4.47,1.69,6.87,2.37,2,.57.26,2.43-.04,3.69-.24,1-.02,2.08.51,2.96s1.42,1.61,2.44,1.85c.5.12,1,.08,1.5-.03.94-.21,1.5-.52,2.15.37s1.2,1.48,2.36,1.28c1.31-.23,2.06-1.25,3.02-2.03,1.97-1.59,2.65,1.51,3.17,2.87.61,1.59,1.2,3.19,1.69,4.83,1.06,3.48,1.65,7.05,1.19,10.68l1.47-.2-.09-.32c-.25-.93-1.7-.54-1.45.4l.09.32c.24.88,1.37.59,1.47-.2.71-5.66-1.09-11.13-3.1-16.34-.6-1.54-1.26-4.06-3.33-4.08-.98-.01-1.79.63-2.48,1.25-.46.42-.89,1-1.51,1.2-1.12.36-1.11-.44-1.61-1.08s-1.14-.85-1.91-.77c-1.37.14-2.4.88-3.51-.37-1.91-2.14,1.26-4.14.25-6.42-.84-1.89-4.03-1.5-5.71-1.97-1.18-.33-2.22-.9-2.88-1.96-.87-1.41-.42-2.38.25-3.71.36-.71.53-1.48.09-2.19-.27-.43-.75-.64-1-1.08-.34-.59-.24-1.36-.11-1.99.47-2.25,1.82-5.39,4.45-5.48,1.76-.05,4.75.51,5.32-1.85.25-1.01.08-2.16.15-3.19.1-1.42.37-2.97,1.36-4.06s2.11-1.21,3.45-.61c.91.4,1.77.77,2.78.54.96-.22,1.7-.87,2.58-1.26,1.57-.7,3.3-.08,4.69.74,1.28.75,2.09,1.6,2.24,3.14.11,1.12.22,2.11.72,3.14.95,1.94,2.71,3.35,3.65,5.3,1.07,2.19.52,5.02-1.19,6.74-1.27,1.28-4.64,1.52-4.16,4,.41,2.13,3.95,1.77,5.51,2.24,3.9,1.17,1.39,5.5-.16,7.55-.32.42.05.95.45,1.1.91.35,1.5,1.18,1.71,2.11.25,1.11-.2,1.9-.68,2.86-.38.77-.56,1.5-.61,2.36-.06,1.21-.27,2.22-.67,3.37-.76,2.17-1.54,4.33-2.31,6.49-.39,1.08-.77,2.16-1.16,3.25-.1.29-.41,1.73-.66,1.86-.87.44-.93-.86-1.02-1.33-.18-.95-1.63-.55-1.45.4Z"/>
    </g>
    <path class="cls-4" d="M274.26,88.19c3.3,2.15,6.42,4.52,10.24,5.63,1.94.57,3.94,1.03,5.4,2.53,1.61,1.65,2.4,4.22,3.41,6.25,2.18,4.37,4.56,8.64,6.97,12.88s4.68,8.46,7.23,12.55c2.23,3.58,5.03,6.71,7.43,10.17,2.15,3.1,4.02,6.39,5.53,9.85,1.84,4.22,2.99,8.69,4.3,13.09,2.6,8.71,5.69,17.23,8.78,25.78,1.57,4.35,2.98,8.82,4.93,13.03,1.79,3.87,4.74,7.38,5.68,11.61.48,2.19.42,4.91-1.57,6.32-1.66,1.18-3.53,2.2-5.25,3.32-2.03,1.32-4.01,2.7-5.91,4.21-1.42,1.13-2.78,2.34-3.99,3.7-1.09,1.23-1.92,2.63-2.87,3.96-2.06,2.89-4.28,5.67-6.54,8.42-4.15,5.04-8.31,10.08-12.52,15.07-.94,1.11-1.91,2.2-2.8,3.36-1.6,2.1-2.74,4.43-3.85,6.81-2.35,5.03-4.7,10.07-7.05,15.11l.85-.34c-1.34-.39-2.66-.81-3.97-1.27-.69-.25-1.8-.49-2.39-.91-.77-.55-.58-1.36-.35-2.19.74-2.67,1.7-5.28,2.81-7.82,2.12-4.84,4.72-9.44,7.27-14.05,2.22-4.02,4.4-8.07,6.23-12.29s4.06-8.21,6.57-12c1.85-2.79,3.96-5.37,6.11-7.94,1.53-1.82,3.04-3.67,4.11-5.8,1.45-2.88,2.21-5.88,1.28-9.03-1.31-4.43-3.22-8.64-4.45-13.11s-2.19-9.13-3-13.75c-.99-5.69-2.75-11.08-4.69-16.5-.93-2.61-1.8-5.23-2.68-7.86-.61-1.84-1.34-3.69-2.59-5.19-1.08-1.3-2.86-2.58-4.64-2.35-2.06.27-2.48,2.72-3.07,4.34-2.01,5.47-4.11,10.92-6.32,16.32s-4.44,11.02-7.16,16.27c-2.42,4.68-5.39,9.69-10.3,12.08-2.23,1.08-4.5,1.89-6.37,3.58-1.77,1.59-3.24,3.56-4.66,5.46-3.15,4.22-5.8,8.82-7.88,13.66-1.02,2.38-1.68,4.9-2.68,7.28-.88,2.1-1.85,4.15-2.6,6.31-1.59,4.61-3.06,9.41.14,13.64s7,8.5,10.84,12.33,8.18,7.12,12.49,10.42,8.3,6.19,12.88,8.58,9.78,3.94,15.11,4.69c2.76.39,5.54.7,8.28,1.25s5.53,1.32,8.32,1.89c5.49,1.12,10.96.89,16.52.7,2.7-.09,5.42-.13,8.12.12,2.44.23,6.58.55,8.26,2.6,2.01,2.45-1.08,5.94-2.51,7.91s-2.99,4.05-4.55,6.03c-1.65,2.09-3.31,4.23-5.14,6.17-1.93,2.04-4.49,3.7-6.74,5.36-3.5,2.58-7.17,4.94-11.08,6.87-8.39,4.14-18.5,6.62-27.83,4.91-5.98-1.1-11.41-4.18-17.6-4.15-4.18.02-8.32,1.15-12.2,2.64-4.09,1.58-7.99,3.7-12.22,4.88-4.56,1.27-9.54,1.21-14.01-.41-2.14-.77-4.17-1.83-6.28-2.68-2.46-.99-5-1.81-7.57-2.48-9.78-2.54-20.16-2.97-30.15-1.46-4.5.68-8.95,1.79-13.15,3.58-3.22,1.38-6.13,3.25-9.12,5.04-7.73,4.64-16.73,5.18-25.46,3.37s-17.55-4.99-24.97-9.98c-4.7-3.17-8.9-7.09-14.61-8.3-2.96-.63-6.08-.76-9.06-.22-2.58.47-4.98,1.54-7.38,2.55-7.77,3.26-16.06,4.3-24.46,3.55-4.99-.45-10.39-1.67-14.17-5.18-2.34-2.17-4.47-4.88-5.52-7.91-1.41-4.04-.17-7.62,3.17-10.15,4.1-3.12,9.13-5.25,13.8-7.34,4.08-1.83,8.25-3.48,12.48-4.93,4.71-1.61,9.56-2.76,14.28-4.35,8.1-2.72,15.97-6.1,23.84-9.43,14.9-6.31,29.7-13.12,43.51-21.6,2.7-1.66,5.3-3.43,7.9-5.25,4.1-2.87,8.32-5.66,12.26-8.77,3.65-2.88,6.95-6.16,9.81-9.82,2.57-3.29,4.77-6.81,8.12-9.38,1.64-1.26,3.31-2.22,5.29-2.81,1.61-.49,3.03-1.22,4.38-2.22s2.45-2.08,3.55-3.23c2.7-2.82,5.04-6,6.94-9.41,1.05-1.88,1.9-3.84,2.72-5.82.98-2.38,2.32-4.45,3.94-6.45,3.46-4.29,5.35-9.72,7.5-14.73,1.17-2.73,2.35-5.46,3.52-8.19.88-2.05,1.9-4.1,2.5-6.26.3-1.08.52-2.21.59-3.33.06-.92-.11-1.85-.02-2.76.22-2.36,2.04-3.86,3.69-5.33,2.52-2.25,4.1-4.98,4.83-8.29.45-2.07.51-4.15.59-6.26.1-2.4.12-4.86-.36-7.22-.86-4.29-3.8-7.67-7.79-9.38l.27,1.03c1.61-2.42,3.07-4.9,4.87-7.19,2.01-2.55,4.29-4.9,6.67-7.11,1.63-1.52,3.31-3,5.13-4.29,1.3-.92,2.32-1.54,3.34-2.8.6-.74-.45-1.81-1.06-1.06-1.06,1.3-2.18,1.93-3.52,2.92-1.83,1.35-3.54,2.85-5.2,4.41-2.41,2.26-4.71,4.67-6.73,7.28-1.75,2.27-3.2,4.71-4.79,7.08-.21.31-.09.87.27,1.03,2.2.94,4.19,2.4,5.51,4.42,1.6,2.46,1.9,5.35,1.94,8.21.06,4.27.03,8.94-2.14,12.77-1.77,3.11-5.5,4.69-6.68,8.16-.64,1.87-.13,3.88-.49,5.8-.45,2.42-1.51,4.64-2.47,6.88-2.35,5.49-4.63,11.02-7.13,16.44-1.18,2.58-2.46,4.95-4.25,7.16-1.48,1.83-2.73,3.77-3.66,5.94-2.9,6.72-6.55,13.01-12.21,17.8-.67.57-.92.77-1.84,1.34-1.34.84-2.78,1.15-4.24,1.71-3.67,1.41-6.78,4.38-9.15,7.43-2.66,3.43-5.13,6.94-8.23,10.01-3.62,3.59-7.76,6.49-11.91,9.42-6.63,4.69-13.26,9.16-20.37,13.11-8.49,4.72-17.23,9.03-26.09,13.01-6.22,2.79-12.41,5.36-18.9,8.03-7.02,2.89-14.12,5.63-21.44,7.68-5.18,1.45-10.25,3.13-15.24,5.16s-9.69,4.19-14.33,6.69c-3.16,1.71-6.8,3.74-8.33,7.19-2.62,5.92,1.84,12.58,6.18,16.39,3.89,3.4,9.16,4.7,14.18,5.22,8.31.87,16.89.01,24.65-3.16,2.38-.97,4.72-2.1,7.24-2.7,3.08-.74,6.38-.65,9.46.03,5.78,1.27,10.01,5.45,14.82,8.59,7.4,4.83,16.21,7.96,24.85,9.71s17.24,1.48,24.74-2.63c2.95-1.62,5.7-3.57,8.73-5.06,4.23-2.08,8.82-3.34,13.45-4.14,10.12-1.75,20.77-1.35,30.72,1.23,2.66.69,5.29,1.55,7.84,2.59,2.08.85,4.08,1.9,6.2,2.64,4.24,1.48,9,1.65,13.36.65s8.02-2.96,11.96-4.59,8.37-3.06,12.79-3.19c6.3-.18,11.82,3.04,17.9,4.12,8.88,1.57,18.33-.43,26.49-4.01,4.07-1.79,7.91-4.07,11.55-6.62,2.89-2.03,6.02-4.14,8.58-6.58,1.33-1.27,2.48-2.82,3.64-4.24,2.91-3.56,5.89-7.22,8.36-11.1,1.11-1.75,2.11-3.98,1.27-6.04-.79-1.92-2.85-2.73-4.71-3.26-5.21-1.47-10.69-1.18-16.04-.98-2.82.1-5.65.19-8.46-.02-2.96-.22-5.84-.86-8.71-1.54-5.53-1.32-11.13-1.84-16.7-2.92-10.72-2.09-19.41-8.97-27.82-15.52-4.49-3.5-8.61-7.29-12.4-11.55-1.83-2.06-3.61-4.17-5.37-6.29-2.03-2.43-3.34-4.58-2.76-7.86.91-5.12,3.35-9.65,4.98-14.52s3.99-9.8,6.82-14.26c2.76-4.34,5.96-9.26,10.76-11.47,2.25-1.03,4.41-1.96,6.27-3.64s3.3-3.67,4.62-5.72c3.08-4.81,5.28-10.14,7.5-15.39s4.34-10.54,6.38-15.86c1.05-2.75,1.89-5.66,3.1-8.33,1.39-3.06,4.78,1.22,5.54,2.73,1.14,2.3,1.75,4.89,2.59,7.31.94,2.7,1.94,5.39,2.86,8.1,3.12,9.25,3.98,19.04,6.85,28.38.72,2.35,1.56,4.65,2.44,6.94.54,1.41,1.15,2.83,1.43,4.31.65,3.46-1.33,7.1-3.3,9.77-1.62,2.19-3.49,4.18-5.16,6.33-2.59,3.32-4.86,6.86-6.86,10.56s-3.47,7.35-5.31,10.99c-2.43,4.81-5.17,9.45-7.68,14.21-2.31,4.37-4.44,8.87-5.91,13.61-.47,1.53-1.6,3.81-.04,5.04.85.67,2.1.98,3.09,1.34,1.4.51,2.82.96,4.25,1.37.29.09.71-.05.85-.34,2.14-4.59,4.28-9.17,6.42-13.76,1-2.15,1.95-4.34,3.22-6.35,1.07-1.69,2.4-3.18,3.69-4.7,3.29-3.87,6.5-7.8,9.73-11.7,2.45-2.95,4.91-5.89,7.24-8.93,2.2-2.87,4.02-6.1,6.66-8.59,2.34-2.21,5-4.1,7.69-5.85,1.31-.85,2.56-1.8,3.91-2.58,1.54-.89,2.98-1.65,3.69-3.38,1.47-3.58-.15-7.6-1.86-10.78-1.05-1.95-2.25-3.81-3.24-5.79-1.08-2.16-1.91-4.43-2.74-6.7-3.38-9.29-6.89-18.55-9.85-27.99-1.55-4.93-2.8-9.98-4.56-14.85-1.08-2.96-2.41-5.84-3.96-8.58-2.16-3.81-4.9-7.1-7.48-10.62-2.79-3.8-5.05-7.9-7.39-11.99s-4.82-8.4-7.11-12.67c-1.15-2.15-2.27-4.32-3.34-6.51-.91-1.87-1.65-3.91-3.25-5.33-2.88-2.56-7.14-2.56-10.35-4.65-1.72-1.12-3.48-2.27-5.22-3.4-.81-.53-1.56.77-.76,1.3h0Z"/>
    <g>
      <path class="cls-4" d="M266.97,107.57c-2.13-1.47-4.51-2.36-7.1-2.56s-5.31.29-7.83,1.05c-.92.28-.53,1.72.4,1.45,2.33-.7,4.73-1.16,7.17-1.01s4.62,1,6.6,2.37c.8.55,1.55-.75.76-1.3h0Z"/>
      <path class="cls-4" d="M227.05,248.21c-2.51,3.76-2.69,8.44-3,12.81-.33,4.61-.45,9.29.46,13.84s3.03,8.48,5.94,12.04c3.06,3.74,6.54,7.27,10.1,10.55,1.86,1.71,3.83,3.28,5.9,4.74s4.27,2.94,5.2,5.35c.34.89,1.79.5,1.45-.4-1.46-3.78-5.25-5.63-8.27-8-3.67-2.89-6.92-6.3-10.11-9.7s-6.33-7.12-7.88-11.67-1.66-9.1-1.47-13.7c.21-4.96.12-10.84,2.97-15.11.54-.81-.76-1.56-1.3-.76h0Z"/>
      <path class="cls-4" d="M204.93,254.4c.44,7.99,1.42,15.95,2.94,23.81.78,4.02,1.7,8.01,2.76,11.96s2.45,7.65,2.93,11.61c.55,4.55.01,9.27-.18,13.83-.04.97,1.46.96,1.5,0,.17-4.04.55-8.15.32-12.19-.22-3.82-1.38-7.44-2.42-11.1-2.22-7.79-3.89-15.74-5-23.77-.65-4.7-1.09-9.42-1.35-14.15-.05-.96-1.55-.97-1.5,0h0Z"/>
      <path class="cls-4" d="M182.24,244.19c-3.27,7.53-7.33,15.01-8.4,23.24-.56,4.25-.99,8.52-1.47,12.78s-.89,8.19-.96,12.31c-.07,4.62.35,9.24,1.64,13.68.27.93,1.72.53,1.45-.4-2.24-7.74-1.69-15.83-.83-23.74.45-4.11.93-8.22,1.4-12.33s1.23-7.93,2.82-11.75c1.82-4.37,3.77-8.69,5.65-13.04.38-.88-.91-1.64-1.3-.76h0Z"/>
      <path class="cls-4" d="M95.47,306.86c3.9-2.49,7.74-5.13,11.82-7.3s8.17-3.86,11.87-6.58,7.27-5.52,11.19-7.94,8.14-4.95,12.21-7.42c4.38-2.66,8.88-5.2,12.89-8.41l-1.06-1.06c-6.24,7.77-12.76,15.39-18.63,23.44-5.39,7.39-9.83,15.82-9.95,25.17-.01.97,1.49.97,1.5,0,.11-9.24,4.67-17.52,10.01-24.78,5.74-7.8,12.06-15.21,18.13-22.76.61-.76-.3-1.67-1.06-1.06-3.59,2.88-7.62,5.16-11.54,7.54s-8.19,4.95-12.27,7.45c-3.81,2.33-7.37,4.9-10.92,7.61s-7.58,4.73-11.68,6.78c-4.63,2.31-8.92,5.27-13.27,8.05-.81.52-.06,1.82.76,1.3h0Z"/>
      <path class="cls-4" d="M198.65,222.23c5.77,10.18,15.65,17.69,26.9,20.8.93.26,1.33-1.19.4-1.45-10.89-3.01-20.42-10.26-26-20.11-.48-.84-1.77-.08-1.3.76h0Z"/>
      <path class="cls-4" d="M281.39,161.73c-6.56,10.87-10.56,23.82-20.9,31.93-.76.59.31,1.65,1.06,1.06,10.45-8.18,14.5-21.25,21.13-32.23.5-.83-.8-1.58-1.3-.76h0Z"/>
      <path class="cls-4" d="M257.35,151.37c-3.02,4-6.26,7.84-9.7,11.49-3.11,3.3-6.5,6.29-9.69,9.51-1.45,1.46-2.82,3.01-3.94,4.73-.86,1.33-2.26,3.47-1.98,5.12s2.33,2.66,3.65,3.23c1.92.82,3.99,1.14,6.04,1.43.94.13,1.35-1.31.4-1.45-1.8-.25-3.63-.51-5.34-1.14-.93-.35-1.86-.82-2.61-1.48-.61-.54-.72-.83-.53-1.62.1-.44.33-.87.52-1.28,1.64-3.52,4.54-6.25,7.33-8.86,6.24-5.84,11.99-12.09,17.14-18.91.58-.77-.72-1.52-1.3-.76h0Z"/>
      <path class="cls-4" d="M226.68,184.25c-1.65,11.66-6.83,22.61-14.74,31.32-.65.71.41,1.78,1.06,1.06,8.08-8.89,13.44-20.07,15.13-31.98.13-.94-1.31-1.35-1.45-.4h0Z"/>
      <path class="cls-4" d="M266.72,294.46c4.74,5.74,9.64,11.59,16.05,15.54,3.41,2.1,7.13,3.26,10.91,4.48s7.47,3.11,11.17,4.81,7.89,3.23,12.19,3.06c.96-.04.97-1.54,0-1.5-7.74.3-14.24-4.76-21.24-7.24-3.74-1.32-7.57-2.25-11.06-4.2-3.23-1.81-6.11-4.17-8.74-6.76-2.94-2.9-5.59-6.08-8.22-9.26-.62-.74-1.67.32-1.06,1.06h0Z"/>
      <path class="cls-4" d="M321.62,297.7c4.19-.14,8.38.09,12.52.71.94.14,1.35-1.3.4-1.45-4.28-.64-8.6-.9-12.92-.76-.96.03-.97,1.53,0,1.5h0Z"/>
      <path class="cls-4" d="M241.36,243.73c-.68,9-1.34,18.35,1.43,27.09,2.45,7.75,7.69,14.31,14.61,18.56.82.51,1.58-.79.76-1.3-6.85-4.21-11.93-10.78-14.17-18.51-2.43-8.38-1.76-17.26-1.12-25.84.07-.96-1.43-.96-1.5,0h0Z"/>
      <path class="cls-4" d="M220.85,302.48c-.29,9.51,11.55,13.02,12.84,21.87.14.95,1.58.55,1.45-.4-.6-4.15-3.57-7.34-6.39-10.22-3.01-3.08-6.54-6.62-6.4-11.25.03-.97-1.47-.96-1.5,0h0Z"/>
      <path class="cls-4" d="M304.8,123.64c1.36,9.23-1.22,18.8-7.03,26.1-.6.75.46,1.82,1.06,1.06,6.18-7.76,8.86-17.74,7.41-27.55-.14-.95-1.59-.55-1.45.4h0Z"/>
      <path class="cls-4" d="M239.07,111.88c3.83,2.08,7.81,4.02,11.53,6.29s5.09,6.67,6.23,10.62,1.85,8.09,2.62,12.16c.59,3.11.93,7.01,4.17,8.54,1.73.81,3.61,1.18,5.35,2.02s3.45,1.67,5.28,2.29c1.95.67,3.97,1.15,5.99,1.57,1.84.38,3.92,1.02,5.81.95s2.99-1.33,4.11-2.59c1.26-1.41,2.39-2.94,3.43-4.53,2.07-3.18,3.85-6.61,5.33-10.1,2.86-6.75,4.14-14.13,4.06-21.45-.01-.96-1.51-.97-1.5,0,.07,6.39-.95,12.69-3.09,18.71-1.15,3.22-2.71,6.3-4.39,9.27-.9,1.59-1.87,3.15-2.95,4.62-.57.78-1.17,1.53-1.8,2.25-.69.79-1.51,1.87-2.53,2.2s-2.15-.03-3.14-.22-1.96-.36-2.94-.57c-1.87-.39-3.74-.83-5.55-1.42-1.93-.63-3.72-1.51-5.56-2.38-1.58-.75-3.24-1.17-4.86-1.81-1.86-.74-2.61-2.31-3.05-4.16s-.72-3.61-1.06-5.41c-.72-3.85-1.44-7.71-2.61-11.45-1.15-3.66-2.57-7.67-5.85-9.94-1.86-1.29-3.98-2.27-5.97-3.35-2.1-1.14-4.2-2.28-6.3-3.42-.85-.46-1.61.83-.76,1.3h0Z"/>
      <path class="cls-4" d="M281.92,112.58c1.23,12.01,2.46,24.21.34,36.19-.17.94,1.28,1.35,1.45.4,2.15-12.13.96-24.43-.29-36.59-.1-.95-1.6-.96-1.5,0h0Z"/>
      <path class="cls-4" d="M266.21,108.87c5.37,3.77,8.42,10.06,9.56,16.39,1.34,7.41.06,15-1.56,22.26-.21.94,1.24,1.34,1.45.4,1.7-7.66,2.99-15.64,1.48-23.45-1.27-6.59-4.6-12.97-10.18-16.89-.79-.56-1.54.74-.76,1.3h0Z"/>
      <path class="cls-4" d="M252.04,106.06c-.94.27-1.86.6-2.77.95-.19.07-.34.16-.45.34-.09.16-.13.4-.08.58.11.35.53.68.92.52.91-.35,1.83-.68,2.77-.95.38-.11.65-.53.52-.92s-.52-.64-.92-.52h0Z"/>
    </g>
    <g>
      <path class="cls-4" d="M234.63,66.05c2.5,1.81,4.76,4.03,6.58,6.53,1.92,2.63,3.27,5.63,4.46,8.64,1.25,3.16,2.35,6.39,3.38,9.63.87,2.74,1.36,5.39,3.77,7.21.77.58,1.52-.72.76-1.3-1.44-1.09-1.92-2.57-2.43-4.23-.48-1.55-.96-3.09-1.47-4.63-1.04-3.15-2.17-6.28-3.48-9.33-2.38-5.56-5.9-10.26-10.81-13.83-.78-.57-1.53.73-.76,1.3h0Z"/>
      <path class="cls-4" d="M275.29,87.17c-2.14-4.01-4.13-8.18-6.58-12.02-1.11-1.74-2.57-3.24-3.63-5.01s-1.57-3.64-1.85-5.6c-.57-4.01-.19-8.11-.34-12.15-.16-4.46-.64-8.9-1.4-13.3-1.35-7.78-3.9-15.25-10.32-20.28-5.74-4.5-13.15-6.33-20.32-5-2.57.48-5.07,1.34-7.4,2.54-2.57,1.33-4.54,3.59-6.66,5.53-3.32,3.05-6.64,6.1-9.96,9.15-1.68,1.54-3.38,3.05-5.03,4.62-1.23,1.17-2.43,2.55-2.55,4.32-.12,1.61.7,2.8,2.03,3.63.84.52,1.75.89,2.22,1.83s.4,2.11.22,3.12c-.36,2.01-.84,3.77-.55,5.84.14,1.01.39,2.03.36,3.06-.02.91-.42,1.77-.05,2.65s1.13,1.37,1.41,2.28c.3.97.19,2.03.16,3.03-.05,1.61.07,3.17.91,4.58,1.65,2.76,4.96,4.17,8.08,4.13,4.07-.05,7.53-2.12,10.95-4.07,3.63-2.07,7.77-2.96,11.41-5.06,1.73-1,3.37-2.15,4.91-3.42,1.37-1.14,2.86-2.37,3.61-4.03,1.19-2.61,1.29-5.8,1.5-8.62.06-.83.1-1.65.16-2.48.04-.63-.87-1.02-1.28-.53-.48.57-1.3,1.35-2.05.77-.94-.72-.77-2.28-.51-3.27l-1.45-.4c-.32,1.57-.6,3.42.73,4.63.89.81,2.14,1.02,3.15.33.44-.3.74-.77,1.18-1.07s.96-.43,1.46-.53c.83-.18,1.68-.24,2.49-.51,1.65-.54,3.02-1.65,4.04-3.05,1.9-2.61,3.41-7.39.65-9.94-2.02-1.86-8.05-2.79-7.81,1.42.05.96,1.55.97,1.5,0-.11-1.89,2.38-1.67,3.56-1.28,1.48.48,2.59,1.52,2.72,3.13.19,2.4-1.01,5.17-2.72,6.82-.85.82-1.87,1.37-3.03,1.63-1.06.24-2.16.29-3.16.76-.73.35-1.41,1.52-2.21,1.55-1.72.07-1.3-2.51-1.1-3.5.19-.94-1.2-1.34-1.45-.4-.44,1.69-.37,3.91,1.23,5,1.33.91,2.91.05,3.83-1.05l-1.28-.53c-.15,2.15-.26,4.3-.55,6.44-.19,1.36-.4,2.82-.98,4.08-.8,1.71-2.59,3.02-4.05,4.16-3.15,2.44-6.67,4.2-10.42,5.5-1.76.61-3.41,1.31-5.02,2.24-1.72.99-3.41,2.04-5.27,2.76-3.39,1.3-7.47,1.6-10.36-.99-1.39-1.25-1.9-2.79-1.89-4.63.02-1.55.23-3.18-.42-4.63-.38-.84-1.29-1.48-1.27-2.45.01-.87.22-1.66.13-2.56-.22-2.07-.59-3.82-.13-5.9.36-1.62.76-3.29.29-4.93-.43-1.5-1.48-2.28-2.77-3.04-4.56-2.68,2.14-7.28,4.25-9.22,3.09-2.84,6.18-5.68,9.27-8.52,1.55-1.42,3.1-2.85,4.65-4.27.91-.83,1.75-1.76,2.82-2.37,1.85-1.06,3.85-1.85,5.91-2.41,6.88-1.84,14.25-.54,20.07,3.59,6.4,4.54,9.13,11.59,10.5,19.05.77,4.16,1.27,8.37,1.49,12.6.2,3.86-.04,7.72.21,11.58.21,3.34.94,6.66,2.95,9.41,1.2,1.65,2.49,3.19,3.54,4.95s1.99,3.58,2.95,5.38,2.02,3.77,3.02,5.66c.46.85,1.75.09,1.3-.76h0Z"/>
      <path class="cls-4" d="M211.66,28.55c1.98-1.41,5-.46,7.13.13,1.22.34,2.39.82,3.34,1.67s1.74,1.93,2.48,2.99c.55.78,1.85.04,1.3-.76-.84-1.19-1.69-2.42-2.8-3.37s-2.48-1.58-3.92-1.98c-2.53-.7-5.95-1.65-8.29.02-.78.55-.03,1.86.76,1.3h0Z"/>
      <path class="cls-4" d="M218.97,29.08c.03-.61-.41-1.1-.96-1.29s-1.16-.04-1.61.35-.66.92-.83,1.45c-.19.59-.29,1.21-.32,1.82s.04,1.24.17,1.84.32,1.21.75,1.64,1.18.61,1.73.3c.59-.32.73-1.01.88-1.61.34-1.35.46-2.76.35-4.15-.03-.4-.32-.75-.75-.75-.38,0-.78.34-.75.75.08,1.07.04,2.15-.18,3.21-.06.29-.13.58-.21.86-.04.13-.07.27-.12.4.03-.07-.07.05-.01.03.05-.06.11-.09.17-.08-.09,0-.11,0-.04,0,.03,0-.05-.03-.09-.08-.09-.12-.14-.33-.19-.49-.29-.97-.31-2-.05-2.98.05-.19.15-.5.21-.62.08-.17.16-.33.26-.41-.03.03.23-.11.1-.06-.08,0-.08,0,.01,0-.08-.02-.08-.02.01,0,.08.03.09.03.02,0,.07.05.08.05.01,0-.02-.06-.06-.27-.07-.12-.02.4.36.75.75.75.42,0,.73-.34.75-.75h0Z"/>
      <path class="cls-4" d="M202.13,39.39c2.55-.22,5.37-.14,7.77.85.59.24,1.77.75,1.66,1.51-.06.46-.32.89-.42,1.34-.13.58-.07,1.12.23,1.64.48.84,1.77.08,1.3-.76-.23-.41.05-.9.19-1.3.18-.53.3-1.1.13-1.66-.31-1.04-1.41-1.68-2.34-2.08-2.62-1.14-5.69-1.29-8.51-1.05-.95.08-.96,1.58,0,1.5h0Z"/>
      <path class="cls-4" d="M204.27,58.64c2.77-.74,5.87-.66,8.62.16.93.28,1.32-1.17.4-1.45-3-.89-6.39-.97-9.42-.16-.93.25-.54,1.7.4,1.45h0Z"/>
      <path class="cls-4" d="M226.6,41.96c1.44.27,2.85.44,4.24-.15,1.08-.46,2.01-1.24,3.12-1.62.91-.31.52-1.75-.4-1.45-1.1.37-2.01,1.06-3.04,1.57-1.14.56-2.31.42-3.52.19-.4-.07-.81.11-.92.52-.1.36.12.85.52.92h0Z"/>
      <path class="cls-4" d="M239.91,69.19c1.48-.22,2.74-1.06,3.9-1.95,1.23-.95,2.49-1.9,3.51-3.09.26-.31.3-.76,0-1.06-.27-.27-.79-.31-1.06,0-.95,1.1-2.11,2.01-3.27,2.9-1.04.81-2.15,1.56-3.48,1.75-.4.06-.62.57-.52.92.12.43.52.58.92.52h0Z"/>
    </g>
  </g>
</svg>